# Blender v3.0.1 OBJ File: ''
# www.blender.org
mtllib quat_floor.mtl
o Floor_Modular_Cube.001
v 0.433881 -0.002548 0.435211
v 0.433881 -0.188798 0.435211
v 0.414881 -0.188798 0.416211
v 0.414881 -0.002548 0.416211
v 0.427122 -0.189447 0.584240
v 0.446122 -0.189447 0.603240
v 0.446122 -0.001899 0.603240
v 0.427122 -0.001899 0.584240
v 0.786383 -0.000875 0.601409
v 0.786383 -0.190472 0.601409
v 0.448063 -0.190471 0.600030
v 0.448063 -0.000875 0.600030
v 0.414881 0.008212 0.878094
v 0.414881 0.008212 0.980603
v 0.433881 -0.002548 0.980603
v 0.433881 -0.002548 0.878094
v 0.429063 -0.000875 0.831779
v 0.429063 -0.190471 0.831779
v 0.429063 -0.190471 0.980066
v 0.429063 -0.000875 0.980066
v 0.406800 0.008212 0.849592
v 0.425800 -0.002548 0.849592
v -0.997333 -0.011948 0.709718
v -0.997333 -0.179398 0.709718
v -0.997333 -0.179398 0.831878
v -0.997333 -0.011948 0.831878
v 0.427122 -0.001899 0.317555
v 0.427122 -0.189447 0.317555
v 0.427122 -0.189447 0.365993
v 0.427122 -0.001899 0.365993
v 0.975401 -0.189448 0.603240
v 0.975401 -0.001899 0.603240
v -0.163392 0.018731 -0.133322
v -0.163392 -0.210077 -0.133322
v -0.143434 -0.210077 -0.131400
v -0.143434 0.018731 -0.131400
v 0.094742 -0.000875 -0.131658
v 0.094742 -0.190471 -0.131658
v -0.244270 -0.190471 -0.131658
v -0.244270 -0.000875 -0.131658
v -0.255189 -0.000875 -0.016188
v -0.255189 -0.190471 -0.016188
v -0.263270 -0.190471 0.398193
v -0.263270 -0.000875 0.398193
v -0.981930 -0.190470 -0.999972
v -0.997333 -0.190470 -0.981520
v -0.997333 -0.000875 -0.981520
v -0.981929 -0.000875 -0.999972
v -0.997333 -0.190470 -0.700137
v -0.997333 -0.000875 -0.700137
v -0.981930 -0.000875 -0.348485
v -0.981930 -0.190471 -0.348485
v -0.269438 -0.190471 -0.348485
v -0.269438 -0.000875 -0.348485
v -0.247827 -0.000875 -0.617153
v -0.247827 -0.190471 -0.617153
v -0.250438 -0.190471 -0.981520
v -0.250438 -0.000875 -0.981520
v -0.269438 0.009885 -0.367485
v -0.277669 0.009885 -0.617153
v -0.269438 0.009885 -0.981520
v -0.981930 0.009885 -0.981520
v -0.977804 0.009885 -0.700137
v -0.967923 0.009885 -0.617153
v -0.981930 0.009885 -0.367485
v -0.249890 -0.013603 -0.705776
v -0.249890 -0.177743 -0.705776
v -0.258843 -0.177743 -0.436509
v -0.258843 -0.013603 -0.436509
v -0.030496 -0.013603 -0.417509
v -0.030496 -0.177743 -0.417509
v 0.417449 -0.177743 -0.417509
v 0.417449 -0.013603 -0.417509
v 0.429244 -0.190471 -0.044691
v 0.429245 -0.000875 -0.044691
v 0.427784 -0.000875 0.007156
v 0.427784 -0.190471 0.007156
v -0.813467 0.011044 -0.352362
v -0.813468 -0.202389 -0.352362
v -0.980827 -0.202389 -0.352362
v -0.980826 0.011044 -0.352362
v -0.258843 -0.013603 -0.791744
v -0.258843 -0.177743 -0.791744
v -0.813468 -0.202389 0.135551
v -0.813468 0.011044 0.135551
v -0.980826 0.011044 0.146072
v -0.980827 -0.202389 0.146072
v -0.277478 0.021804 0.127072
v -0.753691 0.021804 0.127072
v -0.753691 0.011044 0.146072
v -0.277478 0.011044 0.146072
v -0.062354 0.018731 -0.421082
v -0.062354 -0.210077 -0.421082
v -0.238775 -0.210077 -0.421082
v -0.238775 0.018731 -0.421082
v -0.020014 0.029491 -0.377765
v -0.062354 0.029491 -0.402082
v -0.238775 0.029491 -0.402082
v -0.238775 0.029491 -0.150400
v -0.219909 0.029491 -0.150400
v -0.163392 0.029491 -0.165365
v -0.143434 0.029491 -0.150400
v 0.407769 0.029491 -0.150400
v 0.407769 0.029491 -0.402082
v 0.014121 0.029491 -0.393610
v -0.257775 -0.210077 -0.150400
v -0.257775 0.018731 -0.150400
v -0.257775 0.018731 -0.402082
v -0.257775 -0.210077 -0.402082
v -0.211756 0.008212 0.826247
v -0.230611 0.008212 0.435211
v -0.253627 -0.002548 0.435211
v -0.252167 -0.002548 0.826247
v -0.132853 -0.002548 1.000606
v -0.132853 -0.188798 1.000606
v -0.038649 -0.188798 1.000606
v -0.038649 -0.002548 1.000606
v 0.978348 -0.000875 0.600030
v 0.990922 0.006100 0.612938
v 1.007484 -0.000875 0.619030
v 0.990922 0.006100 0.986158
v 0.978348 -0.000875 1.000606
v 1.007484 -0.000875 0.980066
v 0.429063 -0.000875 0.619030
v 0.449473 0.006100 0.612938
v 0.448063 -0.000875 1.000606
v 0.449473 0.006100 0.986158
v -0.038649 0.008212 0.980603
v -0.132853 0.008212 0.963543
v -0.230611 -0.002548 1.000606
v -0.230611 0.008212 0.980603
v -0.230611 0.008212 0.878094
v -0.253628 -0.002548 0.878094
v 0.446122 0.008861 0.083098
v 0.446122 -0.001899 0.064098
v 0.427122 -0.001899 0.083098
v 1.007484 -0.001899 0.083098
v 0.975401 -0.001899 0.064098
v 0.975401 0.008861 0.083098
v 0.446122 0.008861 0.584240
v 1.007484 -0.001899 0.584240
v 0.975401 0.008861 0.584240
v 0.410244 -0.000875 -0.131658
v 0.410244 0.009885 -0.112658
v 0.429245 -0.000875 -0.112658
v 0.410244 0.009885 0.398193
v 0.410244 -0.000875 0.417193
v 0.429244 -0.000875 0.398193
v -0.263270 -0.000875 -0.112658
v -0.244270 0.009885 -0.112658
v -0.244270 -0.000875 0.417193
v -0.244270 0.009885 0.398193
v -0.997333 -0.000875 -0.367485
v -0.250438 -0.000875 -0.367485
v -0.269438 -0.000875 -0.999972
v -0.258843 -0.013603 -0.983084
v -0.239843 -0.002843 -0.983084
v -0.239843 -0.013603 -0.999972
v 0.415412 -0.002844 -0.983084
v 0.434412 -0.013603 -0.983084
v 0.415412 -0.013603 -0.999972
v -0.239843 -0.013603 -0.417509
v -0.239843 -0.002843 -0.436509
v 0.434412 -0.013603 -0.436509
v 0.415412 -0.002843 -0.436509
v -0.980826 0.021804 -0.333362
v -0.997333 0.011044 -0.333362
v -0.254936 0.011044 -0.333362
v -0.277478 0.011044 -0.352362
v -0.277478 0.021804 -0.333362
v -0.997333 0.011044 0.127615
v -0.980826 0.021804 0.127072
v -0.254936 0.011044 0.127072
v 0.426769 0.018731 -0.402082
v 0.407769 0.018731 -0.421082
v 0.407769 0.018731 -0.131400
v 0.426769 0.018731 -0.150400
v -0.238775 0.018731 -0.131400
v 0.433881 -0.188799 0.878094
v 0.425800 -0.188798 0.849592
v 0.414881 -0.002548 1.000606
v -0.144647 -0.002548 0.416211
v -0.144647 -0.188798 0.416211
v -0.189467 -0.188798 0.416211
v -0.189467 -0.002548 0.416211
v 0.414881 0.008212 0.435211
v -0.230611 -0.002548 0.416211
v -0.189467 0.008212 0.435211
v 1.007484 -0.190472 0.835520
v 1.007484 -0.000875 0.835520
v 1.007484 -0.190472 0.980066
v 0.990922 0.006100 0.836463
v 0.429063 -0.190471 0.619030
v 0.449473 0.006100 0.737486
v 0.429063 -0.000875 0.739948
v 0.792118 0.006100 0.624096
v 0.903989 -0.000875 1.000606
v 0.913914 0.006100 0.963523
v 1.007484 -0.190472 0.745964
v 1.007484 -0.000875 0.745964
v 1.007484 -0.000875 0.809059
v 1.007484 -0.190472 0.809059
v 0.414881 -0.188799 1.000606
v 0.433881 -0.188799 0.980603
v 0.975401 -0.189448 0.064098
v 0.446122 -0.189447 0.064098
v 0.446122 0.008861 0.365993
v 1.007484 -0.189448 0.584240
v 1.007484 -0.001899 0.402971
v 0.975401 0.008861 0.402971
v 0.429244 -0.190471 0.398193
v 0.391389 0.009885 0.007156
v -0.263270 -0.190471 -0.112658
v -0.244270 0.009885 -0.044691
v -0.263270 -0.000875 -0.044691
v 0.094742 0.009885 -0.112658
v 0.245560 -0.000875 0.417193
v 0.245560 0.009885 0.398193
v -0.997333 -0.190470 -0.617153
v -0.997333 -0.000875 -0.617153
v -0.997333 -0.190470 -0.367485
v -0.055581 -0.177743 -0.999972
v -0.055581 -0.013603 -0.999972
v 0.415412 -0.177743 -0.999972
v -0.042224 -0.004122 -0.967473
v -0.239843 -0.177743 -0.417509
v -0.109649 -0.002843 -0.436509
v -0.109649 -0.013603 -0.417509
v -0.230890 -0.002843 -0.705776
v 0.434412 -0.013603 -0.887199
v 0.415412 -0.002844 -0.887199
v 0.407769 -0.210077 -0.131400
v -0.997333 0.011044 -0.060614
v -0.960624 0.021804 -0.060071
v -0.254936 0.011044 -0.244567
v -0.277478 0.021804 -0.244567
v -0.254936 -0.202390 -0.244567
v -0.254936 -0.202390 -0.333362
v -0.997333 -0.202389 -0.333362
v -0.813467 0.021804 0.105429
v -0.555721 0.021804 -0.330690
v -0.555721 0.011044 -0.352015
v 0.426769 -0.210077 -0.150400
v 0.426769 -0.210077 -0.402082
v -0.238775 -0.210077 -0.131400
v 0.245560 -0.190471 0.417193
v 0.410244 -0.190471 0.417193
v -0.253628 -0.188798 0.980603
v -0.253628 -0.002548 0.980603
v -0.253628 -0.188798 0.878094
v 0.786383 -0.000875 1.000606
v 0.792118 0.006100 0.986158
v 0.903989 -0.000875 0.600030
v 0.913914 0.006100 0.612938
v 0.972325 0.006100 0.809059
v 0.990922 0.006100 0.743716
v 0.468845 0.006100 0.764890
v 0.449473 0.006100 0.832588
v 0.448063 -0.190471 1.000606
v 0.786383 -0.190472 1.000606
v 0.903989 -0.190472 1.000606
v 0.978348 -0.190472 0.600030
v 0.903989 -0.190472 0.600030
v 0.432658 -0.000875 0.766410
v 0.429063 -0.190471 0.739948
v 0.432658 -0.190471 0.766410
v -0.252167 -0.188798 0.826247
v -0.253627 -0.188798 0.435211
v -0.277478 -0.202390 -0.352362
v -0.555721 -0.202390 -0.352015
v -0.230611 -0.188798 0.416211
v -0.144647 0.008212 0.435211
v -0.230611 -0.188798 1.000606
v -0.277478 -0.202390 0.146072
v -0.254936 -0.202390 0.127072
v -0.997333 -0.202389 0.127615
v -0.813467 0.021804 -0.333362
v 0.429244 -0.190471 -0.112658
v 0.410244 -0.190471 -0.131658
v -0.753691 -0.202389 0.146072
v -0.753691 0.011044 -0.351669
v -0.753691 -0.202389 -0.351669
v -0.753691 0.021804 -0.314656
v -0.254936 0.011044 -0.077310
v -0.294717 0.021804 -0.077310
v -0.997333 0.011044 -0.127125
v -0.980826 0.021804 -0.127125
v -0.254936 -0.202390 -0.077310
v -0.997333 -0.202389 -0.127125
v 0.200739 -0.000875 0.417193
v 0.200739 0.009885 0.398193
v 0.188946 -0.000875 -0.131400
v 0.188946 0.009885 -0.095598
v -0.244270 -0.190471 0.417193
v 0.200739 -0.190471 0.417193
v 0.188946 -0.190471 -0.131400
v -0.236189 0.009885 -0.016188
v 0.410244 0.009885 -0.044691
v -0.019356 -0.004797 -0.455874
v -0.090686 -0.002331 -0.987118
v -0.085099 -0.013603 -0.999972
v -0.085099 -0.177743 -0.999972
v -0.109649 -0.177743 -0.417509
v 0.411820 -0.002843 -0.801231
v -0.239843 -0.002843 -0.791744
v 0.430820 -0.013603 -0.801231
v -0.239843 -0.177743 -0.999972
v 0.434412 -0.177743 -0.436509
v 0.430820 -0.177743 -0.801231
v 0.434412 -0.177743 -0.887199
v -0.258843 -0.177743 -0.983084
v -0.263270 -0.190471 -0.044691
v -0.219909 0.018731 -0.131400
v 0.014121 0.018731 -0.417134
v -0.005837 0.018731 -0.417134
v -0.219909 -0.210077 -0.131400
v 0.014121 -0.210077 -0.417134
v -0.005837 -0.210077 -0.417134
v 0.407769 -0.210077 -0.421082
v -0.997333 -0.202389 -0.060614
v 1.007484 -0.190472 0.619030
v 0.978348 -0.190472 1.000606
v 1.007484 -0.189448 0.083098
v 0.427122 -0.189447 0.083098
v 1.007484 -0.189448 0.451409
v 1.007484 -0.001899 0.451409
v 1.007484 -0.189448 0.402971
v 0.434412 -0.177743 -0.983084
v -0.269438 -0.190471 -0.999972
v -0.250438 -0.190471 -0.367485
v 0.956716 0.008861 0.451409
v 0.457756 0.008861 0.317555
v -0.932583 -0.002069 0.966297
v -0.979466 -0.002069 0.984310
v -0.979466 -0.012829 1.000606
v -0.932583 -0.012829 1.000606
v -0.879558 -0.002069 0.984310
v -0.269986 -0.002069 0.984310
v -0.269986 -0.001188 0.709718
v -0.979466 -0.001188 0.709718
v -0.979466 -0.001188 0.831878
v -0.966393 -0.001188 0.940360
v -0.979466 -0.011948 0.690718
v -0.250986 -0.011948 0.709718
v -0.269986 -0.011948 0.690718
v -0.997333 -0.012829 0.984310
v -0.269986 -0.012829 1.000606
v -0.250986 -0.012829 0.984310
v -0.269986 -0.178517 1.000606
v -0.879558 -0.012829 1.000606
v -0.879558 -0.178517 1.000606
v -0.269986 -0.179398 0.690718
v -0.979466 -0.179398 0.690718
v -0.997333 -0.011948 0.940360
v -0.250986 -0.178517 0.984310
v -0.997333 -0.178517 0.984310
v -0.979466 -0.178517 1.000606
v -0.997333 -0.179398 0.940360
v -0.250986 -0.179398 0.709718
v -0.932583 -0.178517 1.000606
v 0.921675 -0.003349 0.068410
v 0.921674 -0.187998 0.068410
v 0.989307 -0.187998 0.070119
v 0.989307 -0.003349 0.070119
v 0.867489 -0.003349 0.067681
v 0.867489 -0.187998 0.067681
v 0.989307 -0.003349 -0.454775
v 0.989307 -0.187998 -0.454775
v 0.945850 -0.187998 -0.455471
v 0.945850 -0.003349 -0.455471
v 1.007484 -0.187998 0.051119
v 1.007484 -0.187998 -0.435775
v 1.007484 -0.003349 -0.435775
v 1.007484 -0.003349 0.051119
v 0.441797 0.007411 -0.435775
v 0.441797 -0.003349 -0.454775
v 0.422797 -0.003349 -0.435775
v 0.441797 -0.003349 0.070119
v 0.441797 0.007411 0.051119
v 0.422797 -0.003349 0.051119
v 0.989307 0.007411 -0.435775
v 0.989307 0.007411 0.051119
v 0.441797 -0.187998 0.070119
v 0.831352 -0.187998 0.070119
v 0.831353 -0.003349 0.070119
v 0.422797 -0.187997 -0.435775
v 0.422797 -0.187998 0.051119
v 0.945850 0.007411 -0.423923
v 0.831353 0.007411 0.051119
v 0.867489 0.007411 0.029570
v 0.909713 0.007411 -0.435775
v 0.909713 -0.003349 -0.454775
v 0.921675 0.007411 0.051605
v 0.424365 -0.000875 -0.912570
v 0.424365 -0.190471 -0.912570
v 0.432446 -0.190471 -0.884068
v 0.432446 -0.000875 -0.884068
v 0.909713 -0.187998 -0.454775
v 0.441797 -0.187997 -0.454775
v 0.888375 -0.000875 -0.450687
v 0.888374 -0.190472 -0.450687
v 0.933195 -0.190472 -0.450687
v 0.933195 -0.000875 -0.450687
v 0.424365 -0.190471 -0.469687
v 0.424365 -0.000875 -0.469687
v 0.782377 -0.000875 -0.999972
v 0.443365 -0.000875 -0.999972
v 0.443365 0.009885 -0.980537
v 0.782377 0.009885 -0.980537
v 0.974339 -0.000875 -0.999972
v 0.876581 -0.000875 -0.999972
v 0.876581 0.009885 -0.963478
v 0.974339 0.009885 -0.980537
v 0.443365 -0.000875 -0.450687
v 0.888375 0.009885 -0.469687
v 0.443365 0.009885 -0.469687
v 1.007484 -0.000875 -0.980537
v 1.007484 -0.190472 -0.980537
v 0.974339 -0.190471 -0.999972
v 0.443365 -0.190471 -0.999972
v 0.424365 -0.190471 -0.980537
v 0.424365 -0.000875 -0.980537
v 0.974339 0.009885 -0.469687
v 0.974339 -0.000875 -0.450687
v 1.007484 -0.000875 -0.469687
v 0.974339 -0.190472 -0.450687
v 1.007484 -0.190472 -0.469687
v 1.007484 -0.190472 -0.860723
v 1.007484 -0.000875 -0.860723
v 0.876581 -0.190471 -0.999972
v 0.443365 -0.190471 -0.450687
v 0.443365 0.009885 -0.912570
v 0.933195 0.009885 -0.469687
v 0.955484 0.009885 -0.860723
v -0.248402 -0.000875 0.603391
v -0.248402 -0.190471 0.603391
v -0.256483 -0.190471 0.574888
v -0.256483 -0.000875 0.574888
v 0.782377 -0.190471 -0.999972
v 0.451446 0.009885 -0.884068
v 0.974339 0.009885 -0.912570
v 1.007484 -0.000875 -0.912570
v 1.007484 -0.190472 -0.912570
v -0.606414 -0.000875 0.690358
v -0.606414 -0.190471 0.690358
v -0.267402 -0.190471 0.690358
v -0.267402 -0.000875 0.690358
v -0.248402 -0.190471 0.160507
v -0.248402 -0.000875 0.160507
v -0.973276 -0.000875 0.690358
v -0.973276 0.009885 0.671358
v -0.997333 -0.000875 0.671358
v -0.973276 0.009885 0.160507
v -0.973276 -0.000875 0.141508
v -0.997333 -0.000875 0.160507
v -0.248402 -0.000875 0.671358
v -0.267402 0.009885 0.671358
v -0.267402 -0.000875 0.141508
v -0.267402 0.009885 0.160507
v -0.997333 -0.190470 0.551544
v -0.997333 -0.000875 0.551544
v -0.997333 -0.190470 0.160507
v -0.954421 0.009885 0.551544
v -0.248402 -0.190471 0.671358
v -0.267402 0.009885 0.603391
v -0.606414 0.009885 0.671358
v -0.757232 -0.000875 0.141508
v -0.757232 0.009885 0.160507
v -0.757232 -0.190471 0.141508
v -0.973276 -0.190470 0.141508
v -0.997333 -0.190470 0.671358
v -0.973276 -0.190470 0.690358
v -0.712411 -0.000875 0.141508
v -0.712411 0.009885 0.160507
v -0.700618 -0.000875 0.690100
v -0.700618 0.009885 0.654298
v -0.267402 -0.190471 0.141508
v -0.712411 -0.190471 0.141508
v -0.700618 -0.190471 0.690100
v -0.275483 0.009885 0.574888
v -0.973276 0.009885 0.603391
v -0.997333 -0.000875 0.603391
v -0.997333 -0.190470 0.603391
v 0.414881 -0.199558 0.878094
v 0.414881 -0.199558 0.980603
v 0.406800 -0.199558 0.849592
v -0.269438 -0.201231 -0.367485
v -0.981930 -0.201230 -0.367485
v -0.967923 -0.201230 -0.617153
v -0.977805 -0.201230 -0.700137
v -0.981930 -0.201230 -0.981520
v -0.269438 -0.201231 -0.981520
v -0.277669 -0.201231 -0.617153
v -0.277478 -0.213150 0.127072
v -0.753691 -0.213149 0.127072
v -0.020014 -0.220837 -0.377765
v 0.014121 -0.220837 -0.393610
v 0.407769 -0.220837 -0.402082
v 0.407769 -0.220837 -0.150400
v -0.143434 -0.220837 -0.150400
v -0.163392 -0.220837 -0.165365
v -0.219909 -0.220837 -0.150400
v -0.238775 -0.220837 -0.150400
v -0.238775 -0.220837 -0.402082
v -0.062354 -0.220837 -0.402082
v -0.211756 -0.199558 0.826247
v -0.230611 -0.199558 0.435211
v 0.990922 -0.197447 0.612938
v 0.990922 -0.197447 0.986158
v 0.449473 -0.197447 0.612938
v 0.449473 -0.197447 0.986158
v -0.132853 -0.199558 0.963543
v -0.038649 -0.199558 0.980603
v -0.230611 -0.199558 0.980603
v -0.230611 -0.199558 0.878094
v 0.446122 -0.200207 0.083098
v 0.975401 -0.200207 0.083098
v 0.446122 -0.200207 0.584240
v 0.975401 -0.200208 0.584240
v 0.410244 -0.201231 -0.112658
v 0.410244 -0.201231 0.398193
v -0.244270 -0.201231 -0.112658
v -0.244270 -0.201231 0.398193
v -0.239843 -0.188502 -0.983084
v 0.415412 -0.188503 -0.983084
v -0.239843 -0.188503 -0.436509
v 0.415412 -0.188503 -0.436509
v -0.980827 -0.213149 -0.333362
v -0.277478 -0.213150 -0.333362
v -0.980827 -0.213149 0.127072
v 0.414881 -0.199558 0.435211
v -0.189467 -0.199558 0.435211
v 0.990922 -0.197447 0.836463
v 0.449473 -0.197447 0.737486
v 0.792118 -0.197447 0.624096
v 0.913914 -0.197447 0.963523
v 0.446122 -0.200207 0.365993
v 0.975401 -0.200207 0.402971
v 0.391389 -0.201231 0.007156
v -0.244270 -0.201231 -0.044691
v 0.094742 -0.201231 -0.112658
v 0.245560 -0.201231 0.398193
v -0.042224 -0.187224 -0.967473
v -0.109649 -0.188503 -0.436509
v -0.230890 -0.188503 -0.705776
v 0.415412 -0.188503 -0.887199
v -0.960624 -0.213149 -0.060071
v -0.277478 -0.213150 -0.244567
v -0.813468 -0.213149 0.105429
v -0.555721 -0.213150 -0.330690
v 0.792118 -0.197447 0.986158
v 0.913914 -0.197447 0.612938
v 0.449473 -0.197447 0.832588
v 0.468845 -0.197447 0.764890
v 0.990922 -0.197447 0.743716
v 0.972325 -0.197447 0.809059
v -0.144647 -0.199558 0.435211
v -0.813468 -0.213149 -0.333362
v -0.753691 -0.213149 -0.314656
v -0.294717 -0.213150 -0.077310
v -0.980827 -0.213149 -0.127125
v 0.200739 -0.201231 0.398193
v 0.188946 -0.201231 -0.095598
v 0.410244 -0.201231 -0.044691
v -0.236189 -0.201231 -0.016188
v -0.019356 -0.186549 -0.455874
v -0.090686 -0.189015 -0.987118
v -0.239843 -0.188502 -0.791744
v 0.411820 -0.188503 -0.801231
v 0.956716 -0.200207 0.451409
v 0.457756 -0.200207 0.317555
v -0.932583 -0.189277 0.966297
v -0.979466 -0.189276 0.984310
v -0.966393 -0.190158 0.940360
v -0.979466 -0.190158 0.831878
v -0.979466 -0.190157 0.709718
v -0.269986 -0.190158 0.709718
v -0.269986 -0.189277 0.984310
v -0.879558 -0.189277 0.984310
v 0.441797 -0.198757 -0.435775
v 0.441797 -0.198757 0.051119
v 0.989307 -0.198758 -0.435775
v 0.989307 -0.198758 0.051119
v 0.945850 -0.198758 -0.423923
v 0.831352 -0.198758 0.051119
v 0.867489 -0.198758 0.029570
v 0.909713 -0.198758 -0.435775
v 0.921674 -0.198758 0.051605
v 0.782377 -0.201231 -0.980537
v 0.443365 -0.201231 -0.980537
v 0.974339 -0.201231 -0.980537
v 0.876581 -0.201231 -0.963478
v 0.443365 -0.201231 -0.469687
v 0.888374 -0.201231 -0.469687
v 0.974339 -0.201231 -0.469687
v 0.443365 -0.201231 -0.912570
v 0.933195 -0.201231 -0.469687
v 0.955483 -0.201231 -0.860723
v 0.974339 -0.201231 -0.912570
v 0.451446 -0.201231 -0.884068
v -0.973276 -0.201230 0.671358
v -0.973276 -0.201230 0.160507
v -0.267402 -0.201231 0.671358
v -0.267402 -0.201231 0.160507
v -0.954421 -0.201230 0.551544
v -0.267402 -0.201231 0.603391
v -0.606414 -0.201231 0.671358
v -0.757232 -0.201230 0.160507
v -0.712411 -0.201230 0.160507
v -0.700618 -0.201231 0.654298
v -0.973276 -0.201230 0.603391
v -0.275483 -0.201231 0.574888
vn 0.7071 0.0000 -0.7071
vn -0.7071 0.0000 0.7071
vn 0.0041 0.0000 -1.0000
vn 0.4928 0.8702 0.0000
vn -1.0000 0.0000 0.0000
vn 0.4880 0.8618 -0.1384
vn 0.0000 0.0000 1.0000
vn -0.0959 0.0000 0.9954
vn 0.0014 0.0000 -1.0000
vn 0.0000 0.0000 -1.0000
vn -0.9998 0.0000 -0.0195
vn -0.7677 0.0000 -0.6408
vn 1.0000 0.0000 -0.0072
vn -0.0000 1.0000 0.0000
vn -0.9994 0.0000 -0.0332
vn 0.9996 -0.0000 0.0282
vn 0.0058 -0.0000 -1.0000
vn -0.9946 0.0000 0.1036
vn 0.0627 -0.0000 0.9980
vn 0.0000 0.8702 0.4928
vn -0.3213 0.9469 0.0083
vn 0.4755 0.4922 -0.7291
vn 0.4822 0.5475 0.6839
vn -0.4012 0.8235 -0.4012
vn -0.3971 0.8411 0.3673
vn -0.0319 0.9352 0.3527
vn 0.0308 0.9352 0.3527
vn -0.3207 0.9451 -0.0628
vn -0.4420 0.7805 -0.4420
vn 0.2801 0.8353 -0.4731
vn -0.4420 0.7805 0.4420
vn 0.2801 0.8353 0.4731
vn 0.4420 0.7805 -0.4420
vn 0.4420 0.7805 0.4420
vn -0.5194 0.7436 0.4211
vn -0.5167 0.7396 -0.4313
vn 0.4394 0.7760 -0.4525
vn -0.4310 0.7610 -0.4849
vn 0.4310 0.7610 -0.4848
vn 0.4511 0.7965 0.4027
vn -0.4934 0.7569 -0.4286
vn 0.3836 0.8036 -0.4551
vn -0.4826 0.7621 0.4316
vn 0.3836 0.8036 0.4551
vn 0.9621 0.0000 -0.2728
vn 0.0000 0.8807 0.4737
vn 0.4463 0.7881 0.4239
vn 0.0000 0.8702 -0.4928
vn 1.0000 0.0000 0.0000
vn 0.3881 0.9216 0.0000
vn -0.7071 0.0000 -0.7071
vn -0.3234 0.9463 0.0000
vn 0.0067 0.9306 -0.3661
vn -0.0368 0.9685 0.2461
vn 0.7251 0.0000 0.6887
vn -0.4928 0.8702 0.0000
vn 0.5096 0.0000 0.8604
vn 0.3180 0.9481 0.0000
vn 1.0000 0.0000 -0.0037
vn 0.3621 0.9321 -0.0094
vn -0.5245 0.8514 0.0038
vn 0.4032 0.9151 -0.0007
vn 0.4032 0.9151 -0.0045
vn 0.0000 0.8639 -0.5037
vn -0.0076 0.9260 -0.3774
vn -0.4927 0.8700 -0.0164
vn 0.4927 0.8702 0.0000
vn -0.3748 0.9269 -0.0202
vn 0.4308 0.9025 0.0000
vn -0.7549 0.0000 -0.6558
vn 0.0385 0.9153 0.4010
vn -0.0026 0.8822 -0.4708
vn 0.0254 0.9630 0.2684
vn 0.0000 0.8798 -0.4754
vn -0.7341 0.0000 0.6791
vn -0.0059 0.0000 -1.0000
vn 0.0000 0.9005 0.4348
vn -0.0187 0.9337 -0.3577
vn -0.2316 0.9678 0.0987
vn 0.2579 0.9621 -0.0890
vn -0.9985 0.0000 -0.0549
vn 0.2587 0.9652 0.0375
vn -0.2396 0.9700 -0.0414
vn -0.4235 0.9059 0.0000
vn -0.9996 0.0000 -0.0282
vn -1.0000 0.0000 0.0037
vn 0.4928 0.8701 0.0096
vn -0.0012 0.0000 -1.0000
vn -0.0015 0.0000 -1.0000
vn -0.6366 0.0000 -0.7712
vn -0.6560 0.0000 0.7548
vn -0.3807 0.8144 0.4381
vn 0.6445 0.0000 0.7646
vn -0.7454 0.0000 0.6666
vn 0.6445 0.0000 -0.7646
vn -0.1073 0.9107 0.3990
vn -0.1733 0.0000 0.9849
vn 0.0049 -0.0000 -1.0000
vn 0.7071 0.0000 0.7071
vn 0.0581 0.9319 -0.3580
vn 0.3263 0.9451 0.0168
vn -0.5461 0.8377 0.0000
vn 0.3264 0.9451 -0.0138
vn -0.3748 0.9254 0.0567
vn -0.0143 0.9307 -0.3655
vn 0.0008 0.0000 -1.0000
vn 0.0336 0.9303 -0.3653
vn -0.4880 0.8618 0.1384
vn -0.4928 0.8701 -0.0096
vn 0.3612 0.9298 0.0708
vn -0.0091 0.9469 0.3215
vn 0.1290 0.8932 -0.4308
vn -0.0093 0.8027 -0.5963
vn 0.0487 0.9424 0.3309
vn -0.0000 1.0000 0.0007
vn 0.4928 0.8701 -0.0049
vn 0.4927 0.8700 0.0206
vn -0.4921 0.8690 0.0513
vn 1.0000 0.0000 -0.0098
vn 0.9991 0.0000 0.0417
vn 0.4032 0.9151 0.0031
vn -0.4329 0.9014 -0.0121
vn -0.9621 0.0000 0.2728
vn 0.0579 0.9199 0.3878
vn -0.1003 0.9342 -0.3423
vn 0.0340 0.0000 0.9994
vn -0.0050 0.0000 -1.0000
vn 0.0928 0.9413 -0.3245
vn 0.0697 0.0000 -0.9976
vn -0.0071 0.8922 -0.4515
vn -0.1622 0.9093 0.3833
vn -0.0100 0.0000 -0.9999
vn -0.0143 0.9381 -0.3461
vn -0.9909 0.0000 0.1346
vn -0.0117 0.0000 -0.9999
vn 0.5762 0.0000 0.8173
vn 0.5462 0.0000 -0.8376
vn 0.5096 0.0000 -0.8604
vn -0.3768 0.8060 -0.4565
vn 0.7460 0.0000 0.6660
vn -0.7768 0.0000 0.6297
vn 0.6643 0.0000 -0.7474
vn -0.6643 0.0000 -0.7474
vn 0.6967 0.0000 -0.7174
vn 0.9999 0.0000 0.0105
vn -0.4024 0.9151 0.0240
vn 0.2511 0.9667 0.0484
vn -0.3978 0.9174 0.0099
vn 0.9998 0.0000 0.0195
vn 0.2514 0.9677 -0.0177
vn -0.3973 0.9164 -0.0477
vn 0.0750 0.9177 0.3902
vn 0.0005 1.0000 0.0032
vn -0.4642 0.7707 -0.4365
vn -0.4490 0.7456 0.4923
vn 0.4273 0.7545 0.4982
vn -0.4031 0.9142 -0.0416
vn 0.6510 0.0000 0.7591
vn -0.7285 0.0000 -0.6851
vn -0.6739 0.0000 0.7388
vn -0.4033 0.9147 0.0243
vn -0.5159 0.8566 0.0000
vn 0.4928 0.8701 0.0028
vn -0.0194 -0.0000 0.9998
vn -0.0253 -0.0000 0.9997
vn -0.0663 0.9182 0.3905
vn 0.0000 0.8345 0.5510
vn -0.0135 -0.0000 0.9999
vn 0.0160 0.0000 -0.9999
vn 0.4579 0.7736 -0.4381
vn 0.4579 0.7736 0.4381
vn -0.0502 0.9189 -0.3912
vn 0.7226 -0.0000 0.6913
vn 0.5094 0.8605 0.0000
vn 0.1162 0.9294 0.3502
vn 0.7226 0.0000 -0.6913
vn 0.0673 -0.0000 0.9977
vn -0.0764 0.9283 0.3638
vn 0.0604 0.9184 -0.3910
vn -0.0047 0.8571 0.5151
vn -0.0193 0.0000 -0.9998
vn 0.0000 0.8749 -0.4844
vn -0.0313 0.9328 -0.3589
vn 0.5058 0.0000 -0.8626
vn -0.7151 0.0000 -0.6991
vn 0.2718 0.8374 0.4742
vn 0.0325 0.9328 -0.3589
vn 0.4973 0.0000 0.8676
vn -0.4440 0.7839 -0.4340
vn 0.2732 0.8416 -0.4659
vn 0.2450 0.9695 -0.0059
vn 0.3088 0.9511 0.0000
vn 0.2448 0.9686 0.0445
vn -0.0014 0.0000 1.0000
vn -0.3627 0.8109 0.4592
vn -0.3627 0.8109 -0.4592
vn -0.3059 0.9520 0.0074
vn 0.0000 0.8701 -0.4928
vn -0.6198 0.0000 0.7848
vn -0.6198 0.0000 -0.7848
vn 0.0116 0.9307 0.3655
vn 0.0009 0.0000 1.0000
vn -0.0009 0.0000 1.0000
vn -0.0336 0.9303 0.3653
vn -0.4083 0.9129 0.0000
vn -0.3055 0.9506 -0.0555
vn 0.4927 -0.8702 -0.0000
vn 0.4880 -0.8618 -0.1384
vn -0.0000 -1.0000 -0.0000
vn -0.0000 -0.8702 0.4928
vn -0.3213 -0.9469 0.0083
vn 0.4755 -0.4922 -0.7291
vn 0.4822 -0.5475 0.6839
vn -0.4012 -0.8235 -0.4012
vn -0.3971 -0.8411 0.3673
vn -0.0319 -0.9352 0.3527
vn 0.0308 -0.9352 0.3527
vn -0.3207 -0.9451 -0.0628
vn -0.4420 -0.7805 -0.4420
vn 0.2801 -0.8353 -0.4730
vn -0.4420 -0.7805 0.4420
vn 0.2801 -0.8353 0.4730
vn 0.4420 -0.7805 -0.4420
vn 0.4420 -0.7805 0.4420
vn -0.5194 -0.7436 0.4211
vn -0.5167 -0.7396 -0.4313
vn 0.4394 -0.7760 -0.4525
vn -0.4310 -0.7610 -0.4849
vn 0.4310 -0.7610 -0.4849
vn 0.4511 -0.7965 0.4027
vn -0.4934 -0.7569 -0.4286
vn 0.3836 -0.8036 -0.4551
vn -0.4826 -0.7621 0.4316
vn 0.3836 -0.8036 0.4551
vn -0.0000 -0.8807 0.4737
vn 0.4463 -0.7881 0.4239
vn 0.0000 -0.8702 -0.4928
vn 0.3881 -0.9216 0.0000
vn -0.3234 -0.9463 0.0000
vn 0.0067 -0.9306 -0.3661
vn -0.0368 -0.9685 0.2461
vn -0.4928 -0.8702 0.0000
vn 0.3179 -0.9481 0.0000
vn 0.3621 -0.9321 -0.0094
vn -0.5245 -0.8514 0.0038
vn 0.4032 -0.9151 -0.0007
vn 0.4032 -0.9151 -0.0045
vn -0.0000 -0.8639 -0.5037
vn -0.0076 -0.9260 -0.3775
vn -0.4927 -0.8700 -0.0164
vn 0.4928 -0.8702 0.0000
vn -0.3748 -0.9269 -0.0202
vn 0.4308 -0.9025 0.0000
vn 0.0385 -0.9153 0.4010
vn -0.0026 -0.8822 -0.4708
vn 0.0254 -0.9630 0.2684
vn 0.0000 -0.8798 -0.4754
vn -0.0000 -0.9005 0.4348
vn -0.0187 -0.9337 -0.3577
vn -0.2316 -0.9678 0.0988
vn 0.2579 -0.9621 -0.0890
vn 0.2587 -0.9652 0.0375
vn -0.2396 -0.9700 -0.0414
vn -0.4235 -0.9059 0.0000
vn 0.4928 -0.8701 0.0096
vn -0.3807 -0.8144 0.4381
vn -0.1073 -0.9107 0.3990
vn 0.0581 -0.9319 -0.3580
vn 0.3263 -0.9451 0.0168
vn -0.5461 -0.8377 0.0000
vn 0.3264 -0.9451 -0.0138
vn -0.3748 -0.9254 0.0567
vn -0.0143 -0.9307 -0.3655
vn 0.0336 -0.9303 -0.3653
vn -0.4880 -0.8618 0.1384
vn -0.4928 -0.8701 -0.0096
vn 0.3612 -0.9298 0.0708
vn -0.0091 -0.9469 0.3215
vn 0.1290 -0.8932 -0.4308
vn -0.0093 -0.8027 -0.5963
vn 0.0487 -0.9424 0.3309
vn -0.0000 -1.0000 0.0007
vn 0.4928 -0.8701 -0.0049
vn 0.4927 -0.8700 0.0206
vn -0.4927 -0.8702 0.0000
vn -0.4921 -0.8690 0.0512
vn 0.4032 -0.9151 0.0031
vn -0.4329 -0.9014 -0.0121
vn 0.0579 -0.9199 0.3878
vn -0.1003 -0.9342 -0.3423
vn 0.0928 -0.9413 -0.3245
vn -0.0071 -0.8922 -0.4515
vn -0.1622 -0.9093 0.3833
vn -0.0143 -0.9381 -0.3461
vn -0.3768 -0.8060 -0.4565
vn -0.4024 -0.9151 0.0240
vn 0.2511 -0.9668 0.0484
vn -0.3978 -0.9174 0.0099
vn 0.2514 -0.9677 -0.0177
vn -0.3973 -0.9164 -0.0477
vn 0.0750 -0.9177 0.3902
vn 0.0005 -1.0000 0.0032
vn -0.4641 -0.7708 -0.4365
vn -0.4490 -0.7457 0.4923
vn 0.4273 -0.7545 0.4982
vn -0.4031 -0.9142 -0.0416
vn -0.4033 -0.9147 0.0243
vn -0.5159 -0.8567 -0.0000
vn 0.4928 -0.8701 0.0028
vn -0.0663 -0.9182 0.3905
vn 0.0000 -0.8345 0.5510
vn -0.4420 -0.7806 0.4420
vn 0.4579 -0.7736 -0.4381
vn 0.4579 -0.7736 0.4381
vn -0.0502 -0.9189 -0.3912
vn 0.5094 -0.8605 -0.0000
vn 0.1162 -0.9294 0.3502
vn -0.0764 -0.9283 0.3638
vn 0.0604 -0.9184 -0.3910
vn -0.0047 -0.8571 0.5151
vn 0.0000 -0.8749 -0.4844
vn -0.0313 -0.9328 -0.3589
vn 0.2718 -0.8374 0.4742
vn 0.0325 -0.9328 -0.3589
vn -0.4440 -0.7839 -0.4340
vn 0.2732 -0.8416 -0.4659
vn 0.0000 -0.8702 0.4927
vn 0.2450 -0.9695 -0.0059
vn 0.3087 -0.9511 0.0000
vn 0.2448 -0.9686 0.0445
vn -0.3627 -0.8109 0.4592
vn -0.3627 -0.8109 -0.4592
vn -0.3059 -0.9520 0.0074
vn 0.0116 -0.9307 0.3655
vn -0.0336 -0.9303 0.3653
vn -0.4083 -0.9129 0.0000
vn -0.3055 -0.9506 -0.0555
usemtl Grey_Floor.001
s 1
f 1//1 2//1 3//1 4//1
f 5//2 6//2 7//2 8//2
f 9//3 10//3 11//3 12//3
f 13//4 14//4 15//4 16//4
f 17//5 18//5 19//5 20//5
f 21//6 13//6 16//6 22//6
f 23//5 24//5 25//5 26//5
f 27//5 28//5 29//5 30//5
f 31//7 32//7 7//7 6//7
f 33//8 34//8 35//8 36//8
f 37//9 38//9 39//10 40//10
f 41//11 42//11 43//11 44//11
f 45//12 46//12 47//12 48//12
f 49//5 50//5 47//5 46//5
f 51//7 52//7 53//7 54//7
f 55//13 56//13 57//13 58//13
f 59//14 60//14 61//14 62//14 63//14 64//14 65//14
f 66//15 67//15 68//15 69//15
f 70//7 71//7 72//7 73//7
f 74//16 75//16 76//16 77//16
f 78//17 79//17 80//10 81//10
f 82//18 83//18 67//18 66//18
f 84//19 85//19 86//19 87//19
f 88//20 89//20 90//20 91//20
f 92//10 93//10 94//10 95//10
f 96//14 97//14 98//14 99//14 100//14 101//14 102//14 103//14 104//14 105//14
f 106//5 107//5 108//5 109//5
f 110//21 111//21 112//21 113//21
f 114//7 115//7 116//7 117//7
f 118//22 119//22 120//22
f 121//23 122//23 123//23
f 12//24 124//24 125//24
f 126//25 127//25 20//25
f 114//26 117//26 128//26 129//26
f 130//27 114//27 129//27 131//27
f 132//28 110//28 113//28 133//28
f 134//29 135//29 136//29
f 137//30 138//30 139//30
f 8//31 7//31 140//31
f 32//32 141//32 142//32
f 143//33 144//33 145//33
f 146//34 147//34 148//34
f 40//29 149//29 150//29
f 151//31 152//31 44//31
f 51//35 65//35 153//35
f 62//36 48//36 47//36
f 54//34 154//34 59//34
f 155//37 61//37 58//37
f 156//38 157//38 158//38
f 159//39 160//39 161//39
f 69//31 162//31 163//31
f 164//40 165//40 73//40
f 166//41 81//41 167//41
f 168//42 169//42 170//42
f 171//43 86//43 172//43
f 88//44 91//44 173//44
f 104//33 174//33 175//33
f 176//34 177//34 103//34
f 95//29 108//29 98//29
f 107//31 178//31 99//31
f 16//45 179//45 180//45 22//45
f 117//46 181//46 14//46 128//46
f 182//10 183//10 184//10 185//10
f 4//33 186//33 1//33
f 181//47 15//47 14//47
f 185//48 187//48 111//48 188//48
f 189//49 190//49 123//49 191//49
f 192//50 121//50 123//50 190//50
f 11//51 193//51 124//51 12//51
f 194//52 125//52 124//52 195//52
f 9//53 12//53 125//53 196//53
f 197//54 122//54 121//54 198//54
f 199//49 200//49 201//49 202//49
f 203//55 204//55 15//55 181//55
f 138//10 205//10 206//10 135//10
f 30//56 8//56 140//56 207//56
f 32//57 31//57 208//57 141//57
f 209//58 137//58 139//58 210//58
f 134//48 139//48 138//48 135//48
f 142//20 140//20 7//20 32//20
f 77//59 76//59 148//59 211//59
f 212//60 146//60 148//60 76//60
f 39//51 213//51 149//51 40//51
f 214//56 150//56 149//56 215//56
f 37//48 40//48 150//48 216//48
f 217//20 147//20 146//20 218//20
f 219//5 220//5 50//5 49//5
f 63//61 62//61 47//61 50//61
f 221//5 153//5 220//5 219//5
f 60//62 59//63 154//63 55//62
f 51//20 54//20 59//20 65//20
f 155//64 48//64 62//64 61//64
f 222//10 223//10 161//10 224//10
f 225//65 159//65 161//65 223//65
f 68//2 226//2 162//2 69//2
f 227//20 163//20 162//20 228//20
f 66//66 69//66 163//66 229//66
f 230//67 160//67 159//67 231//67
f 36//7 35//7 232//7 176//7
f 233//68 171//68 172//68 234//68
f 235//69 168//69 170//69 236//69
f 235//49 237//49 238//49 168//49
f 81//70 80//70 239//70 167//70
f 240//71 172//71 86//71 85//71
f 241//72 170//72 169//72 242//72
f 177//49 243//49 244//49 174//49
f 92//48 95//48 98//48 97//48
f 107//2 106//2 245//2 178//2
f 36//20 176//20 103//20 102//20
f 104//4 103//4 177//4 174//4
f 99//56 98//56 108//56 107//56
f 217//7 246//7 247//7 147//7
f 248//5 249//5 133//5 250//5
f 251//73 197//73 198//73 252//73
f 118//74 253//74 254//74 119//74
f 252//14 198//14 121//14 192//14 255//14 256//14 119//14 254//14 196//14 125//14 194//14 257//14 258//14 127//14
f 20//75 19//75 259//75 126//75
f 251//7 260//7 261//7 197//7
f 118//10 262//10 263//76 253//76
f 126//77 251//77 252//77 127//77
f 253//78 9//78 196//78 254//78
f 126//7 259//7 260//7 251//7
f 127//52 258//52 17//52 20//52
f 257//79 194//79 195//79 264//79
f 119//50 256//50 200//50 120//50
f 255//80 192//80 190//80 201//80
f 202//49 201//49 190//49 189//49
f 124//5 193//5 265//5 195//5
f 264//81 266//81 18//81 17//81
f 256//82 255//82 201//82 200//82
f 258//83 257//83 264//83 17//83
f 131//84 132//84 133//84 249//84
f 250//85 133//85 113//85 267//85
f 267//86 113//86 112//86 268//86
f 186//87 21//87 22//87 1//87
f 15//49 204//49 179//49 16//49
f 169//88 269//88 270//89 242//89
f 271//90 268//90 112//90 187//90
f 129//14 128//14 14//14 13//14 21//14 186//14 272//14 188//14 111//14 110//14 132//14 131//14
f 4//10 3//10 183//10 182//10
f 117//7 116//7 203//7 181//7
f 182//48 185//48 188//48 272//48
f 249//91 248//91 273//91 130//91
f 130//92 131//92 249//92
f 91//93 274//93 275//93 173//93
f 276//94 87//94 86//94 171//94
f 238//95 269//95 169//95 168//95
f 166//48 277//48 78//48 81//48
f 89//96 240//96 85//96 90//96
f 145//1 278//1 279//1 143//1
f 280//97 90//97 85//97 84//97
f 281//98 282//98 79//17 78//17
f 247//99 211//99 148//99 147//99
f 277//100 283//100 281//100 78//100
f 284//101 235//101 236//101 285//101
f 167//102 286//102 287//102 166//102
f 274//7 91//7 90//7 280//7
f 284//49 288//49 237//49 235//49
f 167//5 239//5 289//5 286//5
f 173//103 284//103 285//103 88//103
f 170//14 241//14 283//14 277//14 166//14 287//14 234//14 172//14 240//14 89//14 88//14 285//14 236//14
f 286//104 233//104 234//104 287//104
f 173//49 275//49 288//49 284//49
f 290//20 217//20 218//20 291//20
f 143//105 292//105 293//105 144//105
f 44//2 43//2 294//2 151//2
f 290//7 295//7 246//7 217//7
f 143//88 279//88 296//106 292//106
f 151//20 290//20 291//20 152//20
f 292//107 37//107 216//107 293//107
f 151//7 294//7 295//7 290//7
f 293//14 216//14 150//14 214//14 297//14 152//14 291//14 218//14 146//14 212//14 298//14 144//14
f 297//108 214//108 215//108 41//108
f 144//4 298//4 75//4 145//4
f 278//49 145//49 75//49 74//49
f 152//109 297//109 41//109 44//109
f 298//110 212//110 76//110 75//110
f 185//10 184//10 271//10 187//10
f 165//111 299//111 70//111 73//111
f 300//112 225//112 223//112 301//112
f 302//10 301//10 223//10 222//10
f 228//7 303//7 71//7 70//7
f 157//113 300//113 301//113 158//113
f 299//114 227//114 228//114 70//114
f 299//115 165//115 304//115 231//115 159//115 225//115 300//115 157//115 305//115 229//115 163//115 227//115
f 164//116 306//116 304//116 165//116
f 306//117 230//117 231//117 304//117
f 156//56 82//56 305//56 157//56
f 82//118 66//118 229//118 305//118
f 307//10 158//10 301//10 302//10
f 164//119 308//119 309//119 306//119
f 306//120 309//120 310//120 230//120
f 156//5 311//5 83//5 82//5
f 61//121 60//62 55//62 58//121
f 65//122 64//122 220//122 153//122
f 215//123 312//123 42//123 41//123
f 313//124 33//124 101//124 100//124
f 314//125 315//125 96//125 105//125
f 94//51 109//51 108//51 95//51
f 313//126 316//126 34//126 33//126
f 314//127 317//127 318//10 315//10
f 178//20 313//20 100//20 99//20
f 315//128 92//128 97//128 96//128
f 178//7 245//7 316//7 313//7
f 315//129 318//129 93//129 92//129
f 175//130 314//130 105//130 104//130
f 33//131 36//131 102//131 101//131
f 175//132 319//132 317//127 314//127
f 286//5 289//5 320//5 233//5
f 283//133 241//133 242//133 281//133
f 195//134 265//134 266//134 264//134
f 321//49 120//49 200//49 199//49
f 253//76 263//76 10//135 9//135
f 322//136 191//136 123//136 122//136
f 120//137 321//137 262//137 118//137
f 197//7 261//7 322//7 122//7
f 174//1 244//1 319//1 175//1
f 232//99 243//99 177//99 176//99
f 323//138 205//138 138//138 137//138
f 135//51 206//51 324//51 136//51
f 141//49 208//49 325//49 326//49
f 111//139 187//139 112//139
f 130//7 273//7 115//7 114//7
f 4//48 182//48 272//48 186//48
f 242//89 270//89 282//98 281//98
f 292//106 296//106 38//9 37//9
f 233//5 320//5 276//5 171//5
f 149//5 213//5 312//5 215//5
f 162//7 226//7 303//7 228//7
f 209//49 327//49 323//49 137//49
f 73//140 72//140 308//140 164//140
f 153//141 221//141 52//141 51//141
f 328//142 224//142 161//142 160//142
f 158//143 307//143 311//143 156//143
f 58//144 57//144 329//144 155//144
f 230//49 310//49 328//49 160//49
f 154//145 330//145 56//145 55//145
f 155//10 329//10 45//10 48//10
f 64//146 63//146 50//146 220//146
f 326//147 209//147 210//147 331//147
f 136//148 27//148 332//148 134//148
f 332//14 207//14 140//14 142//14 331//14 210//14 139//14 134//14
f 30//5 29//5 5//5 8//5
f 22//149 180//149 2//149 1//149
f 136//5 324//5 28//5 27//5
f 141//150 326//150 331//150 142//150
f 27//151 30//151 207//151 332//151
f 326//49 325//49 327//49 209//49
f 333//152 334//152 335//152 336//152
f 334//153 333//153 337//153 338//153 339//153 340//153 341//153 342//153
f 340//154 343//154 23//154
f 344//33 345//33 339//33
f 346//155 335//155 334//155
f 347//156 348//156 338//156
f 349//7 347//7 350//7 351//7
f 345//10 352//10 353//10 343//10
f 354//157 346//157 334//157 342//157
f 347//158 349//158 355//158 348//158
f 343//159 353//159 24//159 23//159
f 340//48 339//48 345//48 343//48
f 356//160 357//160 335//160 346//160
f 354//5 358//5 356//5 346//5
f 26//161 354//161 342//161 341//161
f 23//162 26//162 341//162 340//162
f 348//163 344//163 339//163 338//163
f 26//5 25//5 358//5 354//5
f 359//1 352//1 345//1 344//1
f 348//49 355//49 359//49 344//49
f 351//7 350//7 336//7 360//7
f 361//164 362//164 363//165 364//165
f 337//166 333//166 336//166 350//166
f 338//167 337//167 350//167 347//167
f 360//7 336//7 335//7 357//7
f 365//168 366//168 362//164 361//164
f 367//169 368//169 369//169 370//169
f 371//49 372//49 373//49 374//49
f 375//29 376//29 377//29
f 378//31 379//31 380//31
f 367//170 381//170 373//170
f 374//171 382//171 364//171
f 378//7 383//7 384//7 385//7
f 377//5 386//5 387//5 380//5
f 370//172 388//172 381//172 367//172
f 364//173 363//173 371//173 374//173
f 385//20 389//20 379//20 378//20
f 375//56 377//56 380//56 379//56
f 382//174 374//174 373//174 381//174
f 365//175 390//175 389//175 385//175
f 376//48 375//48 391//48 392//48
f 368//176 367//176 373//176 372//176
f 385//177 384//177 366//177 365//177
f 391//14 375//14 379//14 389//14 390//14 393//14 382//14 381//14 388//14
f 394//123 395//123 396//123 397//123
f 361//178 393//178 390//178 365//178
f 392//179 391//179 388//179 370//179
f 392//10 398//10 399//10 376//10
f 376//51 399//51 386//51 377//51
f 383//2 378//2 380//2 387//2
f 364//180 382//180 393//180 361//180
f 370//181 369//181 398//181 392//181
f 400//7 401//7 402//7 403//7
f 397//11 396//11 404//11 405//11
f 406//182 407//182 408//182 409//182
f 410//183 411//183 412//183 413//183
f 414//20 400//20 415//20 416//20
f 417//184 418//184 419//184 410//184
f 420//185 421//185 422//185 407//185
f 423//186 424//186 425//186
f 411//187 406//187 409//187 412//187
f 426//188 427//188 425//188 424//188
f 407//189 422//189 408//189
f 428//49 429//49 425//49 427//49
f 410//10 419//10 430//10 411//10
f 403//7 402//7 426//7 424//7
f 410//190 413//190 417//190
f 405//2 404//2 431//2 414//2
f 414//31 416//31 405//31
f 432//56 408//56 422//56 394//56
f 403//20 424//20 423//20 433//20
f 434//191 423//191 425//191 429//191
f 400//20 403//20 433//20 415//20
f 435//45 436//45 437//45 438//45
f 406//10 439//10 420//10 407//10
f 414//7 431//7 401//7 400//7
f 412//14 409//14 408//14 432//14 440//14 416//14 415//14 433//14 423//14 434//14 441//14 413//14
f 440//108 432//108 394//108 397//108
f 413//192 441//192 442//192 417//192
f 418//49 417//49 442//49 443//49
f 416//109 440//109 397//109 405//109
f 441//193 434//193 429//193 442//193
f 443//49 442//49 429//49 428//49
f 411//10 430//10 439//10 406//10
f 422//5 421//5 395//5 394//5
f 444//194 445//194 446//7 447//7
f 438//149 437//149 448//149 449//149
f 450//195 451//195 452//195
f 453//196 454//196 455//196
f 447//34 456//34 457//34
f 458//33 459//33 449//33
f 460//5 461//5 455//5 462//5
f 463//197 453//197 455//197 461//197
f 446//99 464//99 456//99 447//99
f 465//4 457//4 456//4 435//4
f 444//20 447//20 457//20 466//20
f 467//198 454//198 453//198 468//198
f 467//10 469//10 470//10 454//10
f 452//199 471//199 472//199 450//199
f 470//200 462//200 455//200 454//200
f 473//198 467//198 468//198 474//198
f 450//201 475//201 476//201 451//201
f 449//1 448//1 477//1 458//1
f 473//10 478//10 469//10 467//10
f 450//202 472//202 479//203 475//203
f 458//198 473//198 474//198 459//198
f 475//204 444//204 466//204 476//204
f 458//10 477//10 478//10 473//10
f 476//14 466//14 457//14 465//14 480//14 459//14 474//14 468//14 453//14 463//14 481//14 451//14
f 480//6 465//6 435//6 438//6
f 451//205 481//205 482//205 452//205
f 471//5 452//5 482//5 483//5
f 459//87 480//87 438//87 449//87
f 481//206 463//206 461//206 482//206
f 483//5 482//5 461//5 460//5
f 475//203 479//203 445//194 444//194
f 456//49 464//49 436//49 435//49
f 484//207 179//207 204//207 485//207
f 486//208 180//208 179//208 484//208
f 487//209 488//209 489//209 490//209 491//209 492//209 493//209
f 494//210 274//210 280//210 495//210
f 496//209 497//209 498//209 499//209 500//209 501//209 502//209 503//209 504//209 505//209
f 506//211 267//211 268//211 507//211
f 262//212 321//212 508//212
f 509//213 191//213 322//213
f 11//214 510//214 193//214
f 259//215 19//215 511//215
f 115//216 512//216 513//216 116//216
f 273//217 514//217 512//217 115//217
f 515//218 250//218 267//218 506//218
f 516//219 324//219 206//219
f 323//220 517//220 205//220
f 5//221 518//221 6//221
f 31//222 519//222 208//222
f 279//223 278//223 520//223
f 521//224 211//224 247//224
f 39//219 522//219 213//219
f 294//221 43//221 523//221
f 52//225 221//225 488//225
f 491//226 46//226 45//226
f 53//224 487//224 330//224
f 329//227 57//227 492//227
f 311//228 307//228 524//228
f 525//229 224//229 328//229
f 68//221 526//221 226//221
f 308//230 72//230 527//230
f 528//231 239//231 80//231
f 238//232 529//232 269//232
f 276//233 530//233 87//233
f 494//234 275//234 274//234
f 498//223 319//223 244//223
f 232//224 499//224 243//224
f 94//219 504//219 109//219
f 106//221 503//221 245//221
f 116//235 513//235 485//235 203//235
f 3//223 2//223 531//223
f 203//236 485//236 204//236
f 184//237 532//237 507//237 271//237
f 533//238 189//238 191//238 509//238
f 534//239 265//239 193//239 510//239
f 10//240 535//240 510//240 11//240
f 261//241 536//241 509//241 322//241
f 29//242 537//242 518//242 5//242
f 327//243 538//243 517//243 323//243
f 516//237 206//237 205//237 517//237
f 519//210 31//210 6//210 518//210
f 539//244 77//244 211//244 521//244
f 540//242 312//242 213//242 522//242
f 38//237 541//237 522//237 39//237
f 246//210 542//210 521//210 247//210
f 490//245 49//245 46//245 491//245
f 493//246 56//246 330//247 487//247
f 52//210 488//210 487//210 53//210
f 329//248 492//248 491//248 45//248
f 543//249 222//249 224//249 525//249
f 544//210 303//210 226//210 526//210
f 67//250 545//250 526//250 68//250
f 310//251 546//251 525//251 328//251
f 320//252 547//252 530//252 276//252
f 237//253 548//253 529//253 238//253
f 549//254 84//254 87//254 530//254
f 550//255 270//255 269//255 529//255
f 93//237 505//237 504//237 94//237
f 35//210 500//210 499//210 232//210
f 498//251 244//251 243//251 499//251
f 503//242 106//242 109//242 504//242
f 260//256 551//256 536//256 261//256
f 262//257 508//257 552//257 263//257
f 551//209 511//209 553//209 554//209 534//209 510//209 535//209 552//209 508//209 555//209 556//209 533//209 509//209 536//209
f 259//258 511//258 551//258 260//258
f 263//259 552//259 535//259 10//259
f 511//239 19//239 18//239 553//239
f 554//260 266//260 265//260 534//260
f 508//238 321//238 199//238 555//238
f 556//261 202//261 189//261 533//261
f 555//262 199//262 202//262 556//262
f 553//263 18//263 266//263 554//263
f 514//264 248//264 250//264 515//264
f 531//265 2//265 180//265 486//265
f 512//209 514//209 515//209 506//209 507//209 532//209 557//209 531//209 486//209 484//209 485//209 513//209
f 183//237 557//237 532//237 184//237
f 273//266 248//266 514//266
f 528//237 80//237 79//237 558//237
f 495//267 280//267 84//267 549//267
f 558//268 79//268 282//268 559//268
f 288//269 560//269 548//269 237//269
f 239//270 528//270 561//270 289//270
f 275//271 494//271 560//271 288//271
f 529//209 548//209 560//209 494//209 495//209 549//209 530//209 547//209 561//209 528//209 558//209 559//209 550//209
f 289//272 561//272 547//272 320//272
f 295//210 562//210 542//210 246//210
f 279//273 520//273 563//273 296//273
f 294//210 523//210 562//210 295//210
f 296//274 563//274 541//274 38//274
f 563//209 520//209 564//209 539//209 521//209 542//209 562//209 523//209 565//209 540//209 522//209 541//209
f 565//275 42//275 312//275 540//275
f 520//251 278//251 74//251 564//251
f 523//276 43//276 42//276 565//276
f 564//277 74//277 77//277 539//277
f 527//278 72//278 71//278 566//278
f 567//279 302//279 222//279 543//279
f 524//280 307//280 302//280 567//280
f 566//281 71//281 303//281 544//281
f 566//282 544//282 526//282 545//282 568//282 524//282 567//282 543//282 525//282 546//282 569//282 527//282
f 308//283 527//283 569//283 309//283
f 309//284 569//284 546//284 310//284
f 311//285 524//285 568//285 83//285
f 83//286 568//286 545//286 67//286
f 492//287 57//287 56//246 493//246
f 488//288 221//288 219//288 489//288
f 316//289 502//289 501//289 34//289
f 317//290 497//290 496//290 318//290
f 245//210 503//210 502//210 316//210
f 318//291 496//291 505//291 93//291
f 319//292 498//292 497//292 317//292
f 34//293 501//293 500//293 35//293
f 559//294 282//294 270//294 550//294
f 507//295 268//295 271//295
f 3//237 531//237 557//237 183//237
f 489//296 219//296 49//296 490//296
f 325//297 570//297 538//297 327//297
f 324//298 516//298 571//298 28//298
f 571//209 516//209 517//209 538//209 570//209 519//209 518//209 537//209
f 208//299 519//299 570//299 325//299
f 28//300 571//300 537//300 29//300
f 572//301 360//301 357//301 573//301
f 573//302 574//302 575//302 576//302 577//302 578//302 579//302 572//302
f 576//303 24//303 353//303
f 359//223 577//223 352//223
f 356//304 573//304 357//304
f 349//305 578//305 355//305
f 358//306 574//306 573//306 356//306
f 576//237 353//237 352//237 577//237
f 25//307 575//307 574//307 358//307
f 24//308 576//308 575//308 25//308
f 355//309 578//309 577//309 359//309
f 579//310 351//310 360//310 572//310
f 578//311 349//311 351//311 579//311
f 580//219 386//219 399//219
f 383//312 387//312 581//312
f 368//313 372//313 582//313
f 371//314 363//314 583//314
f 369//315 368//315 582//315 584//315
f 384//210 383//210 581//210 585//210
f 580//242 581//242 387//242 386//242
f 583//316 582//316 372//316 371//316
f 366//317 384//317 585//317 586//317
f 399//237 398//237 587//237 580//237
f 587//209 584//209 582//209 583//209 588//209 586//209 585//209 581//209 580//209
f 362//318 366//318 586//318 588//318
f 398//319 369//319 584//319 587//319
f 363//320 362//320 588//320 583//320
f 439//321 589//321 590//321 420//321
f 419//322 591//322 592//322 430//322
f 431//210 593//210 594//210 401//210
f 595//323 427//323 426//323
f 430//324 592//324 589//324 439//324
f 420//325 590//325 421//325
f 419//326 418//326 591//326
f 431//221 404//221 593//221
f 596//242 395//242 421//242 590//242
f 402//327 597//327 595//327 426//327
f 598//328 428//328 427//328 595//328
f 401//210 594//210 597//327 402//327
f 592//209 591//209 599//209 598//209 595//209 597//209 594//209 593//209 600//209 596//209 590//209 589//209
f 600//275 396//275 395//275 596//275
f 591//329 418//329 443//329 599//329
f 593//276 404//276 396//276 600//276
f 599//330 443//330 428//330 598//330
f 472//331 471//331 601//331
f 602//332 462//332 470//332
f 446//224 603//224 464//224
f 477//223 448//223 604//223
f 605//333 460//333 462//333 602//333
f 606//251 436//251 464//251 603//251
f 445//210 607//210 603//210 446//210
f 469//237 608//237 602//237 470//237
f 478//237 609//237 608//237 469//237
f 472//334 601//334 610//334 479//334
f 477//237 604//237 609//237 478//237
f 479//335 610//335 607//335 445//335
f 610//209 601//209 611//209 605//209 602//209 608//209 609//209 604//209 612//209 606//209 603//209 607//209
f 612//208 437//208 436//208 606//208
f 601//336 471//336 483//336 611//336
f 604//265 448//265 437//265 612//265
f 611//337 483//337 460//337 605//337
f 53//99 330//99 154//99 54//99
