# Blender v3.0.1 OBJ File: 'meshs.blend'
# www.blender.org
mtllib REDUCED_JUNCTION.mtl
o REDUCED_JUNCTION_Cube.002
v -1.000000 0.000000 1.000000
v -1.000000 0.500000 1.000000
v -1.000000 0.000000 -1.000000
v -1.000000 0.500000 -1.000000
v 1.000000 0.000000 1.000000
v 1.000000 0.500000 1.000000
v 1.000000 0.000000 -1.000000
v 1.000000 0.500000 -1.000000
v -1.000000 0.000000 0.500000
v -1.000000 0.500000 0.500000
v 1.000000 0.000000 0.500000
v 1.000000 0.500000 0.500000
v -1.000000 0.500000 -0.500000
v 1.000000 0.000000 -0.500000
v -1.000000 0.000000 -0.500000
v 1.000000 0.500000 -0.500000
v 0.500000 0.000000 -1.000000
v 0.500000 0.500000 -1.000000
v 0.500000 0.000000 1.000000
v 0.500000 0.500000 1.000000
v 0.500000 0.500000 0.500000
v 0.500000 0.000000 0.500000
v 0.500000 0.000000 -0.500000
v 0.500000 0.500000 -0.500000
v -0.500000 0.000000 -1.000000
v -0.500000 0.500000 1.000000
v -0.500000 0.000000 0.500000
v -0.500000 0.000000 -0.500000
v -0.500000 0.500000 -1.000000
v -0.500000 0.000000 1.000000
v -0.500000 0.500000 0.500000
v -0.500000 0.500000 -0.500000
v 1.000000 2.000000 0.500000
v 1.000000 2.000000 1.000000
v -0.500000 2.000000 1.000000
v -1.000000 2.000000 1.000000
v -1.000000 2.000000 0.500000
v 0.500000 2.000000 0.500000
v 0.500000 2.000000 1.000000
v -0.500000 2.000000 0.500000
vt 0.375000 0.187500
vt 0.625000 0.187500
vt 0.625000 0.250000
vt 0.375000 0.250000
vt 0.375000 0.375000
vt 0.625000 0.375000
vt 0.625000 0.500000
vt 0.375000 0.500000
vt 0.375000 0.625000
vt 0.625000 0.625000
vt 0.625000 0.750000
vt 0.375000 0.750000
vt 0.375000 0.937500
vt 0.625000 0.937500
vt 0.625000 1.000000
vt 0.375000 1.000000
vt 0.250000 0.625000
vt 0.250000 0.750000
vt 0.625000 0.625000
vt 0.625000 0.750000
vt 0.812500 0.562500
vt 0.875000 0.562500
vt 0.875000 0.625000
vt 0.812500 0.625000
vt 0.250000 0.562500
vt 0.375000 0.562500
vt 0.625000 0.562500
vt 0.375000 0.000000
vt 0.625000 0.000000
vt 0.625000 0.125000
vt 0.375000 0.125000
vt 0.250000 0.500000
vt 0.812500 0.500000
vt 0.875000 0.500000
vt 0.750000 0.500000
vt 0.750000 0.562500
vt 0.187500 0.500000
vt 0.187500 0.562500
vt 0.187500 0.625000
vt 0.750000 0.625000
vt 0.812500 0.625000
vt 0.750000 0.625000
vt 0.187500 0.750000
vt 0.625000 0.875000
vt 0.375000 0.875000
vt 0.375000 0.312500
vt 0.625000 0.312500
vt 0.125000 0.625000
vt 0.125000 0.750000
vt 0.125000 0.562500
vt 0.125000 0.500000
vt 0.625000 0.875000
vt 0.625000 0.937500
vt 0.875000 0.625000
vt 0.875000 0.750000
vt 0.812500 0.750000
vt 0.750000 0.750000
vt 0.625000 0.000000
vt 0.625000 0.125000
vt 0.625000 1.000000
vn -1.0000 0.0000 0.0000
vn 0.0000 0.0000 -1.0000
vn 1.0000 0.0000 0.0000
vn 0.0000 0.0000 1.0000
vn 0.0000 -1.0000 0.0000
vn 0.0000 1.0000 0.0000
usemtl None
s off
f 15/1/1 13/2/1 4/3/1 3/4/1
f 17/5/2 18/6/2 8/7/2 7/8/2
f 11/9/3 12/10/3 6/11/3 5/12/3
f 30/13/4 26/14/4 2/15/4 1/16/4
f 22/17/5 11/9/5 5/12/5 19/18/5
f 6/11/3 12/10/3 33/19/3 34/20/3
f 32/21/6 13/22/6 10/23/6 31/24/6
f 23/25/5 14/26/5 11/9/5 22/17/5
f 14/26/3 16/27/3 12/10/3 11/9/3
f 1/28/1 2/29/1 10/30/1 9/31/1
f 7/8/3 8/7/3 16/27/3 14/26/3
f 17/32/5 7/8/5 14/26/5 23/25/5
f 29/33/6 4/34/6 13/22/6 32/21/6
f 9/31/1 10/30/1 13/2/1 15/1/1
f 8/7/6 18/35/6 24/36/6 16/27/6
f 25/37/5 17/32/5 23/25/5 28/38/5
f 28/38/5 23/25/5 22/17/5 27/39/5
f 16/27/6 24/36/6 21/40/6 12/10/6
f 21/40/2 31/24/2 40/41/2 38/42/2
f 27/39/5 22/17/5 19/18/5 30/43/5
f 5/12/4 6/11/4 20/44/4 19/45/4
f 25/46/2 29/47/2 18/6/2 17/5/2
f 3/4/2 4/3/2 29/47/2 25/46/2
f 9/48/5 27/39/5 30/43/5 1/49/5
f 15/50/5 28/38/5 27/39/5 9/48/5
f 3/51/5 25/37/5 28/38/5 15/50/5
f 18/35/6 29/33/6 32/21/6 24/36/6
f 24/36/6 32/21/6 31/24/6 21/40/6
f 26/14/4 20/44/4 39/52/4 35/53/4
f 19/45/4 20/44/4 26/14/4 30/13/4
f 40/41/6 37/54/6 36/55/6 35/56/6
f 33/19/6 38/42/6 39/57/6 34/20/6
f 38/42/6 40/41/6 35/56/6 39/57/6
f 31/24/2 10/23/2 37/54/2 40/41/2
f 10/30/1 2/29/1 36/58/1 37/59/1
f 2/15/4 26/14/4 35/53/4 36/60/4
f 20/44/4 6/11/4 34/20/4 39/52/4
f 12/10/2 21/40/2 38/42/2 33/19/2
