# Blender v3.0.1 OBJ File: 'apple.blend'
# www.blender.org
mtllib golden_apple.mtl
o Sphere.001_Sphere.003
v -0.002783 0.136485 -0.003740
v 0.029325 0.133098 0.082704
v -0.002303 0.137256 -0.003907
v -0.000694 0.138151 -0.004385
v 0.001701 0.138860 -0.005007
v 0.004441 0.138702 -0.005710
v 0.006696 0.139899 -0.006246
v 0.008734 0.140134 -0.006888
v 0.010192 0.139904 -0.007409
v 0.010815 0.139373 -0.007617
v 0.010423 0.138853 -0.007452
v 0.009055 0.138645 -0.006986
v 0.006971 0.138583 -0.006374
v 0.004620 0.137729 -0.005820
v 0.001972 0.137545 -0.005148
v -0.000380 0.136663 -0.004507
v -0.002077 0.136205 -0.003969
v -0.008679 0.147949 0.027808
v 0.003488 0.153819 0.045076
v 0.014317 0.152073 0.060294
v 0.022736 0.143643 0.072190
v 0.023280 0.143705 0.072310
v 0.015446 0.152391 0.060564
v 0.005162 0.155184 0.045688
v -0.006782 0.150432 0.028741
v -0.007539 0.140054 0.004710
v 0.024855 0.143542 0.072298
v 0.018738 0.152223 0.060469
v 0.010188 0.156386 0.045980
v -0.000495 0.154062 0.029679
v -0.004916 0.142880 0.005612
v 0.027194 0.143288 0.072282
v 0.023585 0.151558 0.060033
v 0.017679 0.155935 0.045244
v 0.009466 0.155214 0.028918
v 0.001436 0.145324 0.005749
v 0.029910 0.143188 0.072482
v 0.029071 0.151256 0.059983
v 0.025966 0.155494 0.044577
v 0.020482 0.154697 0.027274
v 0.009822 0.144957 0.004012
v 0.032576 0.143407 0.073019
v 0.034289 0.152232 0.061023
v 0.033543 0.157731 0.045600
v 0.030153 0.158500 0.027544
v 0.017017 0.148381 0.003335
v 0.034807 0.143775 0.073649
v 0.038576 0.153565 0.062193
v 0.039668 0.159933 0.046293
v 0.038039 0.160586 0.026725
v 0.023727 0.149592 0.002056
v 0.036292 0.144028 0.074058
v 0.041418 0.154261 0.062679
v 0.043819 0.160065 0.045698
v 0.043519 0.159541 0.024929
v 0.028030 0.148599 0.000429
v 0.036824 0.144001 0.074075
v 0.042449 0.154141 0.062531
v 0.045385 0.159189 0.044942
v 0.045609 0.157986 0.023855
v 0.028260 0.146555 -0.000673
v 0.036326 0.143667 0.073678
v 0.041512 0.153396 0.061981
v 0.044047 0.158385 0.044768
v 0.043974 0.156747 0.023980
v 0.026772 0.145312 -0.000436
v 0.034866 0.143123 0.072958
v 0.038726 0.152093 0.060958
v 0.040006 0.157297 0.044736
v 0.038726 0.156279 0.025115
v 0.022143 0.144716 0.000454
v 0.032649 0.142575 0.072130
v 0.034448 0.150465 0.059484
v 0.033851 0.154830 0.043746
v 0.030714 0.154246 0.025727
v 0.016039 0.143996 0.001495
v 0.029988 0.142299 0.071528
v 0.029223 0.149429 0.058372
v 0.026225 0.152645 0.042704
v 0.020668 0.150630 0.025085
v 0.009444 0.141486 0.002039
v 0.027268 0.142457 0.071391
v 0.023745 0.149793 0.058490
v 0.017986 0.153044 0.043373
v 0.009957 0.150806 0.026615
v 0.002318 0.141335 0.003559
v 0.024914 0.142892 0.071606
v 0.018887 0.150763 0.059219
v 0.010520 0.153784 0.044363
v 0.000297 0.149455 0.026860
v -0.003093 0.139294 0.003373
v 0.023314 0.143345 0.071929
v 0.015539 0.151539 0.059849
v 0.005384 0.153535 0.044701
v -0.006047 0.147484 0.026742
v 0.001063 0.126983 -0.014332
v -0.097431 0.119463 0.054374
v 0.001501 0.128039 -0.013654
v 0.002780 0.129145 -0.011517
v 0.004538 0.129893 -0.008364
v 0.006486 0.129351 -0.004845
v 0.008104 0.130819 -0.001814
v 0.009725 0.130922 0.000800
v 0.010942 0.130420 0.002617
v 0.011421 0.129582 0.003358
v 0.011032 0.128877 0.002823
v 0.009897 0.128737 0.001074
v 0.008306 0.128888 -0.001598
v 0.006645 0.127924 -0.004723
v 0.004754 0.127964 -0.008156
v 0.002981 0.126963 -0.011260
v 0.001613 0.126498 -0.013461
v -0.011061 0.130394 -0.018974
v -0.041018 0.144536 -0.012127
v -0.058135 0.151834 0.010050
v -0.073538 0.148271 0.029103
v -0.085961 0.135298 0.043286
v -0.085902 0.135327 0.044069
v -0.073432 0.148607 0.030751
v -0.058203 0.153622 0.012638
v -0.041353 0.147916 -0.009038
v -0.011408 0.132760 -0.018030
v -0.085288 0.134915 0.046199
v -0.072049 0.147993 0.035200
v -0.056577 0.154796 0.019691
v -0.039942 0.152459 0.000147
v -0.011406 0.136553 -0.013928
v -0.084378 0.134287 0.049363
v -0.069656 0.146485 0.041627
v -0.052768 0.153298 0.029658
v -0.035066 0.152997 0.013624
v -0.009004 0.139369 -0.004997
v -0.083593 0.133839 0.053118
v -0.067492 0.145435 0.049069
v -0.048740 0.151725 0.040730
v -0.028739 0.150997 0.028129
v -0.003565 0.137880 0.005907
v -0.083241 0.133862 0.056933
v -0.066761 0.146270 0.056583
v -0.047013 0.154115 0.051573
v -0.025157 0.155403 0.041754
v 0.000254 0.142006 0.015841
v -0.083168 0.134150 0.060195
v -0.066536 0.147725 0.062897
v -0.045424 0.156613 0.060335
v -0.020960 0.157519 0.052467
v 0.004543 0.142987 0.024736
v -0.083105 0.134354 0.062364
v -0.066028 0.148417 0.066980
v -0.043054 0.156331 0.065838
v -0.016601 0.155377 0.059325
v 0.008234 0.141053 0.030042
v -0.082924 0.134255 0.063091
v -0.065446 0.148125 0.068333
v -0.041528 0.154884 0.067675
v -0.014499 0.152887 0.061721
v 0.009629 0.138066 0.029846
v -0.082625 0.133825 0.062265
v -0.065142 0.147149 0.066826
v -0.041862 0.153872 0.065724
v -0.015355 0.151284 0.059413
v 0.008687 0.136442 0.027771
v -0.082294 0.133196 0.060014
v -0.064974 0.145570 0.062605
v -0.043435 0.152754 0.060101
v -0.018856 0.151210 0.052539
v 0.005731 0.136111 0.021660
v -0.082117 0.132645 0.056697
v -0.064820 0.143684 0.056189
v -0.044670 0.149873 0.051186
v -0.022835 0.149182 0.041598
v 0.002007 0.135769 0.013567
v -0.082387 0.132538 0.052864
v -0.065465 0.142764 0.048640
v -0.046390 0.147565 0.040276
v -0.026074 0.145084 0.027371
v -0.001364 0.132892 0.004497
v -0.083253 0.133070 0.049128
v -0.067710 0.143904 0.041232
v -0.050403 0.149071 0.029265
v -0.032156 0.146555 0.013218
v -0.006066 0.133491 -0.004798
v -0.084412 0.133963 0.046018
v -0.070466 0.145857 0.034905
v -0.054512 0.150987 0.019434
v -0.036264 0.145692 -0.000016
v -0.008021 0.131150 -0.012423
v -0.085420 0.134800 0.043970
v -0.072524 0.147359 0.030592
v -0.056939 0.151208 0.012501
v -0.038662 0.143558 -0.008889
v -0.009343 0.129722 -0.016695
v 0.060868 0.173399 -0.003337
v 0.062303 0.171082 0.000028
v 0.060458 0.174943 0.000688
v 0.000413 0.113543 -0.002538
v 0.000525 0.117985 -0.002627
v 0.000385 0.122626 -0.002687
v 0.000538 0.127619 -0.002686
v 0.004462 0.137360 -0.002673
v 0.007052 0.144673 -0.002262
v 0.011692 0.149917 -0.002158
v 0.018759 0.154732 -0.002089
v 0.024599 0.160120 -0.001945
v 0.030688 0.164064 -0.002031
v 0.039902 0.165990 -0.002400
v 0.046896 0.169732 -0.002506
v 0.055027 0.171797 -0.002868
v 0.054709 0.168857 0.000371
v 0.048288 0.167446 0.000863
v 0.040353 0.164634 0.001106
v 0.035531 0.160767 0.001223
v 0.026470 0.158033 0.001463
v 0.019374 0.152802 0.001327
v 0.014379 0.148145 0.001312
v 0.006488 0.136542 0.000942
v 0.003258 0.126915 0.000958
v 0.002464 0.122330 0.001014
v 0.002812 0.117840 0.001101
v 0.002974 0.113252 0.001170
v 0.054523 0.172775 0.001064
v 0.045756 0.171134 0.001485
v 0.039890 0.168793 0.001834
v 0.031780 0.164960 0.001910
v 0.022592 0.161142 0.001973
v 0.016319 0.154893 0.001683
v 0.010898 0.150595 0.001721
v 0.006038 0.144933 0.001546
v 0.003012 0.138353 0.001248
v -0.001279 0.127756 0.001091
v -0.001600 0.122566 0.001056
v -0.001373 0.117719 0.001084
v -0.001285 0.113210 0.001165
v 0.000000 0.124201 -0.019509
v 0.000000 0.142446 -0.070711
v 0.000000 0.136254 -0.083147
v 0.000000 0.125059 -0.092388
v 0.000000 0.109879 -0.098079
v 0.000000 0.091846 -0.100000
v 0.000000 0.072440 -0.098079
v 0.000000 0.053681 -0.092388
v 0.000000 0.036392 -0.083147
v 0.000000 0.021238 -0.070711
v 0.000000 0.008802 -0.055557
v 0.000000 0.000597 -0.038268
v 0.000000 0.009007 -0.019509
v 0.007466 0.124201 -0.018024
v 0.014645 0.136587 -0.035355
v 0.021261 0.142776 -0.051328
v 0.027060 0.142446 -0.065328
v 0.031819 0.136254 -0.076818
v 0.035355 0.125059 -0.085355
v 0.037533 0.109879 -0.090613
v 0.038268 0.091846 -0.092388
v 0.037533 0.072440 -0.090613
v 0.035355 0.053681 -0.085355
v 0.031819 0.036392 -0.076818
v 0.027060 0.021238 -0.065328
v 0.021261 0.008802 -0.051328
v 0.014645 0.001781 -0.035355
v 0.007466 0.004122 -0.018024
v 0.013795 0.124201 -0.013795
v 0.027060 0.136587 -0.027060
v 0.039285 0.142776 -0.039285
v 0.050000 0.142446 -0.050000
v 0.058794 0.136254 -0.058794
v 0.065328 0.125059 -0.065328
v 0.069352 0.109879 -0.069352
v 0.070711 0.091846 -0.070711
v 0.069352 0.072440 -0.069352
v 0.065328 0.053681 -0.065328
v 0.058794 0.036392 -0.058794
v 0.050000 0.021238 -0.050000
v 0.039285 0.008802 -0.039285
v 0.027060 0.002269 -0.027060
v 0.013795 0.004426 -0.013795
v 0.018024 0.124201 -0.007466
v 0.035355 0.136587 -0.014645
v 0.051328 0.142776 -0.021261
v 0.065328 0.142446 -0.027060
v 0.076818 0.136254 -0.031819
v 0.085355 0.125059 -0.035355
v 0.090613 0.109879 -0.037533
v 0.092388 0.091846 -0.038268
v 0.090613 0.072440 -0.037533
v 0.085355 0.053681 -0.035355
v 0.076818 0.036392 -0.031819
v 0.065328 0.021238 -0.027060
v 0.051328 0.008802 -0.021261
v 0.035355 0.002258 -0.014645
v 0.018024 0.004469 -0.007466
v 0.019509 0.124201 0.000000
v 0.038268 0.136587 0.000000
v 0.055557 0.142776 0.000000
v 0.070711 0.142446 0.000000
v 0.083147 0.136254 0.000000
v 0.092388 0.125059 0.000000
v 0.098079 0.109879 0.000000
v 0.100000 0.091846 0.000000
v 0.098079 0.072440 0.000000
v 0.092388 0.053681 0.000000
v 0.083147 0.036392 0.000000
v 0.070711 0.021238 0.000000
v 0.055557 0.008802 0.000000
v 0.038268 0.001945 0.000000
v 0.019509 0.006588 0.000000
v 0.018024 0.124201 0.007466
v 0.035355 0.136587 0.014645
v 0.051328 0.142776 0.021261
v 0.065328 0.142446 0.027060
v 0.076818 0.136254 0.031819
v 0.085355 0.125059 0.035355
v 0.090613 0.109879 0.037533
v 0.092388 0.091846 0.038268
v 0.090613 0.072440 0.037533
v 0.085355 0.053681 0.035355
v 0.076818 0.036392 0.031819
v 0.065328 0.021238 0.027060
v 0.051328 0.008802 0.021261
v 0.035355 0.002081 0.014645
v 0.018024 0.010697 0.007466
v 0.013795 0.124201 0.013795
v 0.027060 0.136587 0.027060
v 0.039285 0.142776 0.039285
v 0.050000 0.142446 0.050000
v 0.058794 0.136254 0.058794
v 0.065328 0.125059 0.065328
v 0.069352 0.109879 0.069352
v 0.070711 0.091846 0.070711
v 0.069352 0.072440 0.069352
v 0.065328 0.053681 0.065328
v 0.058794 0.036392 0.058794
v 0.050000 0.021238 0.050000
v 0.039285 0.008802 0.039285
v 0.027060 0.000892 0.027060
v 0.013795 0.004652 0.013795
v 0.007466 0.124201 0.018024
v 0.014645 0.136587 0.035355
v 0.021261 0.142776 0.051328
v 0.027060 0.142446 0.065328
v 0.031819 0.136254 0.076818
v 0.035355 0.125059 0.085355
v 0.037533 0.109879 0.090613
v 0.038268 0.091846 0.092388
v 0.037533 0.072440 0.090613
v 0.035355 0.053681 0.085355
v 0.031819 0.036392 0.076818
v 0.027060 0.021238 0.065328
v 0.021261 0.008802 0.051328
v 0.014645 0.001847 0.035355
v 0.007466 0.007071 0.018024
v -0.000000 0.124201 0.019509
v -0.000000 0.136587 0.038268
v -0.000000 0.142776 0.055557
v -0.000000 0.142446 0.070711
v -0.000000 0.136254 0.083147
v -0.000000 0.125059 0.092388
v -0.000000 0.109879 0.098079
v -0.000000 0.091846 0.100000
v -0.000000 0.072440 0.098079
v -0.000000 0.053681 0.092388
v -0.000000 0.036392 0.083147
v -0.000000 0.021238 0.070711
v -0.000000 0.008802 0.055557
v -0.000000 0.001457 0.038268
v -0.000000 0.009697 0.019509
v 0.000000 0.019927 0.000000
v -0.007466 0.124201 0.018024
v -0.014645 0.136587 0.035355
v -0.021261 0.142776 0.051328
v -0.027060 0.142446 0.065328
v -0.031819 0.136254 0.076818
v -0.035355 0.125059 0.085355
v -0.037533 0.109879 0.090613
v -0.038268 0.091846 0.092388
v -0.037533 0.072440 0.090613
v -0.035355 0.053681 0.085355
v -0.031819 0.036392 0.076818
v -0.027060 0.021238 0.065328
v -0.021261 0.008802 0.051328
v -0.014645 0.002477 0.035355
v -0.007466 0.007334 0.018024
v -0.013795 0.124201 0.013795
v -0.027060 0.136587 0.027060
v -0.039285 0.142776 0.039285
v -0.050000 0.142446 0.050000
v -0.058794 0.136254 0.058794
v -0.065328 0.125059 0.065328
v -0.069352 0.109879 0.069352
v -0.070711 0.091846 0.070711
v -0.069352 0.072440 0.069352
v -0.065328 0.053681 0.065328
v -0.058794 0.036392 0.058794
v -0.050000 0.021238 0.050000
v -0.039285 0.008802 0.039285
v -0.027060 0.000591 0.027060
v -0.013795 0.007727 0.013795
v -0.018024 0.124201 0.007466
v -0.035355 0.136587 0.014645
v -0.051328 0.142776 0.021261
v -0.065328 0.142446 0.027060
v -0.076818 0.136254 0.031819
v -0.085355 0.125059 0.035355
v -0.090613 0.109879 0.037533
v -0.092388 0.091846 0.038268
v -0.090613 0.072440 0.037533
v -0.085355 0.053681 0.035355
v -0.076818 0.036392 0.031819
v -0.065328 0.021238 0.027060
v -0.051328 0.008802 0.021261
v -0.035355 0.002033 0.014645
v -0.018024 0.004377 0.007466
v -0.019509 0.124201 -0.000000
v -0.038268 0.136587 -0.000000
v -0.055557 0.142776 -0.000000
v -0.070711 0.142446 -0.000000
v -0.083147 0.136254 -0.000000
v -0.092388 0.125059 -0.000000
v -0.098079 0.109879 -0.000000
v -0.100000 0.091846 -0.000000
v -0.098079 0.072440 -0.000000
v -0.092388 0.053681 -0.000000
v -0.083147 0.036392 -0.000000
v -0.070711 0.021238 -0.000000
v -0.055557 0.008802 -0.000000
v -0.038268 0.001627 -0.000000
v -0.019509 0.004584 -0.000000
v -0.018024 0.124201 -0.007466
v -0.035355 0.136587 -0.014645
v -0.051328 0.142776 -0.021261
v -0.065328 0.142446 -0.027060
v -0.076818 0.136254 -0.031819
v -0.085355 0.125059 -0.035355
v -0.090613 0.109879 -0.037533
v -0.092388 0.091846 -0.038268
v -0.090613 0.072440 -0.037533
v -0.085355 0.053681 -0.035355
v -0.076818 0.036392 -0.031819
v -0.065328 0.021238 -0.027060
v -0.051328 0.008802 -0.021261
v -0.035355 0.002131 -0.014645
v -0.018024 0.006547 -0.007466
v -0.013795 0.124201 -0.013795
v -0.027060 0.136587 -0.027060
v -0.039285 0.142776 -0.039285
v -0.050000 0.142446 -0.050000
v -0.058794 0.136254 -0.058794
v -0.065328 0.125059 -0.065328
v -0.069352 0.109879 -0.069352
v -0.070711 0.091846 -0.070711
v -0.069352 0.072440 -0.069352
v -0.065328 0.053681 -0.065328
v -0.058794 0.036392 -0.058794
v -0.050000 0.021238 -0.050000
v -0.039285 0.008802 -0.039285
v -0.027060 0.002360 -0.027060
v -0.013795 0.004248 -0.013795
v -0.007466 0.124201 -0.018024
v -0.014645 0.136587 -0.035355
v -0.021261 0.142776 -0.051328
v -0.027060 0.142446 -0.065328
v -0.031819 0.136254 -0.076818
v -0.035355 0.125059 -0.085355
v -0.037533 0.109879 -0.090613
v -0.038268 0.091846 -0.092388
v -0.037533 0.072440 -0.090613
v -0.035355 0.053681 -0.085355
v -0.031819 0.036392 -0.076818
v -0.027060 0.021238 -0.065328
v -0.021261 0.008802 -0.051328
v -0.014645 0.001003 -0.035355
v -0.007466 0.009728 -0.018024
v 0.000000 0.136587 -0.038268
v 0.000000 0.142776 -0.055557
v 0.000426 0.112601 -0.002537
v 0.000818 0.112269 -0.001975
v 0.001292 0.112055 -0.001292
v 0.001697 0.112062 -0.000703
v 0.002179 0.112297 0.000000
v -0.000344 0.111417 -0.000830
v -0.000000 0.111894 -0.001591
v -0.000496 0.111282 -0.000496
v 0.002968 0.113000 0.001172
v 0.002832 0.112906 0.001173
v 0.001178 0.111945 0.001178
v 0.000488 0.111677 0.001179
v -0.000628 0.111267 -0.000260
v -0.001456 0.112109 0.001184
v -0.001037 0.111572 0.000430
v -0.000788 0.111342 0.000000
v -0.000000 0.111611 0.001180
v -0.000490 0.111680 0.001183
v -0.001185 0.111951 0.001185
v 0.002934 0.130226 -0.000450
v 0.004113 0.130583 0.000940
v 0.001639 0.131030 0.001041
v 0.003054 0.132263 -0.001173
v 0.000865 0.134121 0.001168
v 0.004973 0.133064 0.000937
v 0.002068 0.132591 -0.002681
v 0.000295 0.134491 0.001205
v 0.001427 0.130536 -0.002683
v -0.000698 0.132075 0.001170
v 0.012530 0.145383 0.001209
v 0.009031 0.143116 -0.000240
v 0.009873 0.141436 0.001069
v 0.006599 0.141210 -0.001812
v 0.008492 0.143310 0.001283
v 0.008313 0.143203 0.001286
v 0.007870 0.140260 -0.000525
v 0.005083 0.139114 -0.002575
v 0.004052 0.140616 0.001350
v 0.008867 0.141036 0.001098
v 0.005653 0.140724 -0.002484
v 0.005168 0.143041 0.001460
v -0.005257 0.138426 0.003416
v -0.005045 0.138285 0.002940
v -0.004220 0.137183 -0.000078
v -0.004393 0.137068 -0.001289
v -0.007659 0.139632 0.004588
v -0.005798 0.138491 0.001430
v -0.006143 0.139057 0.005888
v -0.008533 0.145842 0.022615
v -0.007537 0.144422 0.019143
v -0.008390 0.143776 0.017525
v -0.008140 0.140181 0.008665
v -0.008409 0.144692 0.019513
vt 0.706954 0.000245
vt 0.748561 0.031449
vt 0.706954 0.031449
vt 0.748561 0.062654
vt 0.706954 0.062654
vt 0.748561 0.093859
vt 0.706954 0.093859
vt 0.748561 0.125063
vt 0.706954 0.125063
vt 0.748561 0.156268
vt 0.706954 0.156268
vt 0.748561 0.187473
vt 0.706954 0.187473
vt 0.748561 0.218678
vt 0.706954 0.218678
vt 0.748561 0.249882
vt 0.706954 0.249882
vt 0.748561 0.281087
vt 0.706954 0.281087
vt 0.748561 0.312292
vt 0.706954 0.312292
vt 0.748561 0.343497
vt 0.706954 0.343497
vt 0.748561 0.374701
vt 0.706954 0.374701
vt 0.748561 0.405906
vt 0.706954 0.405906
vt 0.748561 0.437111
vt 0.706954 0.437111
vt 0.748561 0.468315
vt 0.706954 0.468315
vt 0.748561 0.499520
vt 0.706954 0.499520
vt 0.326957 0.517901
vt 0.283763 0.500009
vt 0.237009 0.500009
vt 0.193814 0.517901
vt 0.160754 0.550961
vt 0.142862 0.594156
vt 0.142862 0.640910
vt 0.160754 0.684105
vt 0.193814 0.717165
vt 0.237009 0.735057
vt 0.283763 0.735057
vt 0.326957 0.717165
vt 0.360017 0.684105
vt 0.377909 0.640910
vt 0.377909 0.594156
vt 0.360017 0.550961
vt 0.498923 0.468315
vt 0.520791 0.468315
vt 0.511724 0.499520
vt 0.498923 0.499520
vt 0.582135 0.468315
vt 0.623742 0.468315
vt 0.623742 0.499520
vt 0.582135 0.499520
vt 0.665348 0.468315
vt 0.665348 0.499520
vt 0.498923 0.437111
vt 0.540529 0.437111
vt 0.540529 0.459171
vt 0.537891 0.459422
vt 0.582135 0.437111
vt 0.544909 0.468315
vt 0.623742 0.437111
vt 0.665348 0.437111
vt 0.498923 0.405906
vt 0.540529 0.405906
vt 0.582135 0.405906
vt 0.623742 0.405906
vt 0.665348 0.405906
vt 0.498923 0.374701
vt 0.526954 0.374701
vt 0.514542 0.384038
vt 0.531895 0.396505
vt 0.535549 0.374701
vt 0.540529 0.374701
vt 0.582135 0.374701
vt 0.623742 0.374701
vt 0.665348 0.374701
vt 0.498923 0.343497
vt 0.540529 0.343497
vt 0.535928 0.368952
vt 0.582135 0.343497
vt 0.623742 0.343497
vt 0.665348 0.343497
vt 0.498923 0.312292
vt 0.540529 0.312292
vt 0.582135 0.312292
vt 0.623742 0.312292
vt 0.665348 0.312292
vt 0.498923 0.281087
vt 0.540529 0.281087
vt 0.582135 0.281087
vt 0.623742 0.281087
vt 0.665348 0.281087
vt 0.498923 0.249882
vt 0.540529 0.249882
vt 0.582135 0.249882
vt 0.623742 0.249882
vt 0.665348 0.249882
vt 0.498923 0.218678
vt 0.540529 0.218678
vt 0.582135 0.218678
vt 0.623742 0.218678
vt 0.665348 0.218678
vt 0.498923 0.187473
vt 0.540529 0.187473
vt 0.582135 0.187473
vt 0.623742 0.187473
vt 0.665348 0.187473
vt 0.498923 0.156268
vt 0.540529 0.156268
vt 0.582135 0.156268
vt 0.623742 0.156268
vt 0.665348 0.156268
vt 0.498923 0.125063
vt 0.515602 0.125063
vt 0.523234 0.135417
vt 0.530445 0.146913
vt 0.528956 0.126211
vt 0.528860 0.125063
vt 0.540529 0.125063
vt 0.582135 0.125063
vt 0.623742 0.125063
vt 0.665348 0.125063
vt 0.498923 0.093859
vt 0.540529 0.093859
vt 0.526940 0.111223
vt 0.512227 0.121709
vt 0.582135 0.093859
vt 0.623742 0.093859
vt 0.665348 0.093859
vt 0.498923 0.062654
vt 0.540529 0.062654
vt 0.582135 0.062654
vt 0.623742 0.062654
vt 0.665348 0.062654
vt 0.498923 0.031449
vt 0.540529 0.031449
vt 0.582135 0.031449
vt 0.623742 0.031449
vt 0.665348 0.031449
vt 0.498923 0.000245
vt 0.511724 0.000245
vt 0.525182 0.019182
vt 0.540529 0.023576
vt 0.582135 0.000245
vt 0.623742 0.000245
vt 0.665348 0.000245
vt 0.957081 0.000245
vt 0.998687 0.031449
vt 0.957081 0.031449
vt 0.998687 0.062654
vt 0.957081 0.062654
vt 0.998687 0.093859
vt 0.957081 0.093859
vt 0.998687 0.125063
vt 0.957081 0.125063
vt 0.998687 0.156268
vt 0.957081 0.156268
vt 0.998687 0.187473
vt 0.957081 0.187473
vt 0.998687 0.218678
vt 0.957081 0.218678
vt 0.998687 0.249882
vt 0.957081 0.249882
vt 0.998687 0.281087
vt 0.957081 0.281087
vt 0.998687 0.312292
vt 0.957081 0.312292
vt 0.998687 0.343497
vt 0.957081 0.343497
vt 0.998687 0.374701
vt 0.957081 0.374701
vt 0.998687 0.405906
vt 0.957081 0.405906
vt 0.998687 0.437111
vt 0.957081 0.437111
vt 0.998687 0.468315
vt 0.957081 0.468315
vt 0.998687 0.499520
vt 0.957081 0.499520
vt 0.562494 0.517901
vt 0.519299 0.500009
vt 0.472545 0.500009
vt 0.429350 0.517901
vt 0.396290 0.550961
vt 0.378398 0.594156
vt 0.378398 0.640910
vt 0.396290 0.684105
vt 0.429350 0.717165
vt 0.472545 0.735057
vt 0.519299 0.735057
vt 0.562494 0.717165
vt 0.595554 0.684105
vt 0.613446 0.640910
vt 0.613446 0.594156
vt 0.595554 0.550961
vt 0.749050 0.468315
vt 0.790656 0.468315
vt 0.790656 0.499520
vt 0.749050 0.499520
vt 0.832262 0.468315
vt 0.832262 0.499520
vt 0.873869 0.468315
vt 0.873869 0.499520
vt 0.915475 0.468315
vt 0.915475 0.499520
vt 0.749050 0.437111
vt 0.790656 0.437111
vt 0.832262 0.437111
vt 0.873869 0.437111
vt 0.915475 0.437111
vt 0.749050 0.405906
vt 0.790656 0.405906
vt 0.832262 0.405906
vt 0.873869 0.405906
vt 0.915475 0.405906
vt 0.749050 0.374701
vt 0.768330 0.374701
vt 0.769539 0.386742
vt 0.782939 0.380944
vt 0.775059 0.374701
vt 0.790656 0.374701
vt 0.832262 0.374701
vt 0.873869 0.374701
vt 0.915475 0.374701
vt 0.749050 0.343497
vt 0.790656 0.343497
vt 0.766429 0.362882
vt 0.832262 0.343497
vt 0.873869 0.343497
vt 0.915475 0.343497
vt 0.749050 0.312292
vt 0.790656 0.312292
vt 0.832262 0.312292
vt 0.873869 0.312292
vt 0.915475 0.312292
vt 0.749050 0.281087
vt 0.790656 0.281087
vt 0.832262 0.281087
vt 0.873869 0.281087
vt 0.915475 0.281087
vt 0.749050 0.249882
vt 0.790656 0.249882
vt 0.832262 0.249882
vt 0.873869 0.249882
vt 0.915475 0.249882
vt 0.749050 0.218678
vt 0.790656 0.218678
vt 0.832262 0.218678
vt 0.873869 0.218678
vt 0.915475 0.218678
vt 0.749050 0.187473
vt 0.790656 0.187473
vt 0.832262 0.187473
vt 0.873869 0.187473
vt 0.915475 0.187473
vt 0.749050 0.156268
vt 0.790656 0.156268
vt 0.832262 0.156268
vt 0.873869 0.156268
vt 0.915475 0.156268
vt 0.749050 0.125063
vt 0.763257 0.125063
vt 0.760735 0.144482
vt 0.772319 0.125063
vt 0.790656 0.125063
vt 0.832262 0.125063
vt 0.801948 0.141528
vt 0.801596 0.146779
vt 0.804207 0.151889
vt 0.873869 0.125063
vt 0.915475 0.125063
vt 0.749050 0.093859
vt 0.790656 0.093859
vt 0.790656 0.112252
vt 0.783154 0.107883
vt 0.784331 0.111059
vt 0.790656 0.116571
vt 0.773890 0.123586
vt 0.763774 0.116828
vt 0.832262 0.093859
vt 0.791180 0.117202
vt 0.793636 0.120683
vt 0.797514 0.122686
vt 0.794654 0.115618
vt 0.873869 0.093859
vt 0.915475 0.093859
vt 0.749050 0.062654
vt 0.790656 0.062654
vt 0.832262 0.062654
vt 0.873869 0.062654
vt 0.915475 0.062654
vt 0.749050 0.031449
vt 0.790656 0.031449
vt 0.832262 0.031449
vt 0.873869 0.031449
vt 0.915475 0.031449
vt 0.749050 0.000245
vt 0.790656 0.000245
vt 0.832262 0.000245
vt 0.873869 0.000245
vt 0.915475 0.000245
vt 0.125730 0.500009
vt 0.142373 0.500009
vt 0.142373 0.666434
vt 0.125730 0.666434
vt 0.142373 0.832860
vt 0.125730 0.832860
vt 0.793674 0.707554
vt 0.613935 0.603782
vt 0.793674 0.500009
vt 0.142373 0.999285
vt 0.125730 0.999285
vt 0.857017 0.666454
vt 0.840375 0.666582
vt 0.839092 0.500162
vt 0.855734 0.500033
vt 0.823732 0.666710
vt 0.822450 0.500290
vt 0.807090 0.666839
vt 0.805808 0.500418
vt 0.794163 0.666938
vt 0.795900 0.500495
vt 0.880743 0.832860
vt 0.886465 0.832860
vt 0.884734 0.999285
vt 0.880743 0.999285
vt 0.009233 0.832860
vt 0.025875 0.832860
vt 0.025875 0.999285
vt 0.009233 0.999285
vt 0.042518 0.832860
vt 0.042518 0.999285
vt 0.059160 0.832860
vt 0.059160 0.999285
vt 0.075803 0.832860
vt 0.075803 0.999285
vt 0.092445 0.832860
vt 0.092445 0.999285
vt 0.109088 0.832860
vt 0.109088 0.999285
vt 0.858299 0.832874
vt 0.841657 0.833002
vt 0.825015 0.833130
vt 0.808373 0.833259
vt 0.795560 0.833358
vt 0.795812 0.749470
vt 0.880743 0.666434
vt 0.895409 0.666434
vt 0.893259 0.687494
vt 0.025875 0.666434
vt 0.042518 0.666434
vt 0.059160 0.666434
vt 0.075803 0.666434
vt 0.092445 0.666434
vt 0.109088 0.666434
vt 0.859582 0.999294
vt 0.842940 0.999422
vt 0.826298 0.999551
vt 0.809656 0.999679
vt 0.799748 0.999755
vt 0.798433 0.898811
vt 0.880743 0.500009
vt 0.884734 0.500009
vt 0.890174 0.603255
vt 0.009233 0.500009
vt 0.025875 0.500009
vt 0.018277 0.666434
vt 0.009233 0.600517
vt 0.042518 0.500009
vt 0.059160 0.500009
vt 0.075803 0.500009
vt 0.092445 0.500009
vt 0.109088 0.500009
vt 0.404819 0.374701
vt 0.373615 0.374701
vt 0.373615 0.343497
vt 0.404819 0.343497
vt 0.186386 0.374701
vt 0.155182 0.374701
vt 0.155182 0.343497
vt 0.186386 0.343497
vt 0.436024 0.374701
vt 0.436024 0.343497
vt 0.217591 0.374701
vt 0.217591 0.343497
vt 0.467229 0.374701
vt 0.467229 0.343497
vt 0.248796 0.374701
vt 0.248796 0.343497
vt 0.030363 0.374701
vt 0.001703 0.360372
vt 0.003352 0.359417
vt 0.002577 0.357390
vt 0.030363 0.343496
vt 0.498434 0.359099
vt 0.280001 0.374701
vt 0.280001 0.343497
vt 0.061568 0.374701
vt 0.061568 0.343497
vt 0.311205 0.374701
vt 0.311205 0.343497
vt 0.092772 0.374701
vt 0.092772 0.343497
vt 0.342410 0.374701
vt 0.342410 0.343497
vt 0.123977 0.374701
vt 0.123977 0.343497
vt 0.342410 0.312292
vt 0.373615 0.312292
vt 0.123977 0.312292
vt 0.155182 0.312292
vt 0.404819 0.312292
vt 0.186386 0.312292
vt 0.436024 0.312292
vt 0.217591 0.312292
vt 0.467229 0.312292
vt 0.248796 0.312292
vt 0.002577 0.329603
vt 0.002080 0.326433
vt 0.030363 0.312292
vt 0.498434 0.327894
vt 0.280001 0.312292
vt 0.061568 0.312292
vt 0.311205 0.312292
vt 0.092772 0.312292
vt 0.002080 0.298150
vt 0.002097 0.295220
vt 0.030363 0.281087
vt 0.498434 0.296689
vt 0.467229 0.281087
vt 0.248796 0.281087
vt 0.280001 0.281087
vt 0.061568 0.281087
vt 0.311205 0.281087
vt 0.092772 0.281087
vt 0.342410 0.281087
vt 0.123977 0.281087
vt 0.373615 0.281087
vt 0.155182 0.281087
vt 0.404819 0.281087
vt 0.186386 0.281087
vt 0.436024 0.281087
vt 0.217591 0.281087
vt 0.123977 0.249882
vt 0.155182 0.249882
vt 0.373615 0.249882
vt 0.404819 0.249882
vt 0.186386 0.249882
vt 0.436024 0.249882
vt 0.217591 0.249882
vt 0.467229 0.249882
vt 0.248796 0.249882
vt 0.002097 0.266954
vt 0.002644 0.263742
vt 0.030363 0.249882
vt 0.498434 0.265485
vt 0.280001 0.249882
vt 0.061568 0.249882
vt 0.311205 0.249882
vt 0.092772 0.249882
vt 0.342410 0.249882
vt 0.248796 0.218678
vt 0.280001 0.218678
vt 0.030363 0.218678
vt 0.061568 0.218678
vt 0.311205 0.218678
vt 0.092772 0.218678
vt 0.342410 0.218678
vt 0.123977 0.218678
vt 0.373615 0.218678
vt 0.155182 0.218678
vt 0.404819 0.218678
vt 0.186386 0.218678
vt 0.436024 0.218678
vt 0.217591 0.218678
vt 0.467229 0.218678
vt 0.002644 0.236023
vt 0.004279 0.231940
vt 0.004061 0.231829
vt 0.498434 0.234280
vt 0.373615 0.187473
vt 0.404819 0.187473
vt 0.155182 0.187473
vt 0.186386 0.187473
vt 0.436024 0.187473
vt 0.217591 0.187473
vt 0.467229 0.187473
vt 0.248796 0.187473
vt 0.004061 0.205526
vt 0.001823 0.201743
vt 0.030363 0.187473
vt 0.498434 0.203075
vt 0.280001 0.187473
vt 0.061568 0.187473
vt 0.311205 0.187473
vt 0.092772 0.187473
vt 0.342410 0.187473
vt 0.123977 0.187473
vt 0.030363 0.156268
vt 0.061568 0.156268
vt 0.280001 0.156268
vt 0.311205 0.156268
vt 0.092772 0.156268
vt 0.342410 0.156268
vt 0.123977 0.156268
vt 0.373615 0.156268
vt 0.155182 0.156268
vt 0.404819 0.156268
vt 0.186386 0.156268
vt 0.436024 0.156268
vt 0.217591 0.156268
vt 0.467229 0.156268
vt 0.248796 0.156268
vt 0.001823 0.173203
vt 0.001200 0.170850
vt 0.498434 0.171870
vt 0.155182 0.125063
vt 0.186386 0.125063
vt 0.404819 0.125063
vt 0.436024 0.125063
vt 0.217591 0.125063
vt 0.467229 0.125063
vt 0.248796 0.125063
vt 0.001200 0.141687
vt 0.001046 0.139722
vt 0.030363 0.125063
vt 0.498434 0.140666
vt 0.280001 0.125063
vt 0.061568 0.125063
vt 0.311205 0.125063
vt 0.092772 0.125063
vt 0.342410 0.125063
vt 0.123977 0.125063
vt 0.373615 0.125063
vt 0.280001 0.093859
vt 0.311205 0.093859
vt 0.061568 0.093859
vt 0.092772 0.093859
vt 0.342410 0.093859
vt 0.123977 0.093859
vt 0.373615 0.093859
vt 0.155182 0.093859
vt 0.404819 0.093859
vt 0.186386 0.093859
vt 0.436024 0.093859
vt 0.217591 0.093859
vt 0.467229 0.093859
vt 0.248796 0.093859
vt 0.001046 0.110405
vt 0.001207 0.108437
vt 0.030363 0.093859
vt 0.498434 0.109461
vt 0.404819 0.062654
vt 0.436024 0.062654
vt 0.186386 0.062654
vt 0.217591 0.062654
vt 0.467229 0.062654
vt 0.248796 0.062654
vt 0.001207 0.079281
vt 0.001838 0.076916
vt 0.030363 0.062654
vt 0.498434 0.078256
vt 0.280001 0.062654
vt 0.061568 0.062654
vt 0.311205 0.062654
vt 0.092772 0.062654
vt 0.342410 0.062654
vt 0.123977 0.062654
vt 0.373615 0.062654
vt 0.155182 0.062654
vt 0.311205 0.031449
vt 0.342410 0.031449
vt 0.092772 0.031449
vt 0.123977 0.031449
vt 0.373615 0.031449
vt 0.155182 0.031449
vt 0.404819 0.031449
vt 0.186386 0.031449
vt 0.436024 0.031449
vt 0.217591 0.031449
vt 0.467229 0.031449
vt 0.248796 0.031449
vt 0.001838 0.048392
vt 0.002206 0.047772
vt 0.000954 0.046154
vt 0.030363 0.031449
vt 0.498434 0.047052
vt 0.280001 0.031449
vt 0.061568 0.031449
vt 0.436024 0.000245
vt 0.467229 0.000245
vt 0.217591 0.000245
vt 0.248796 0.000245
vt 0.000954 0.016745
vt 0.000418 0.015217
vt 0.030363 0.000245
vt 0.498434 0.015847
vt 0.280001 0.000245
vt 0.061568 0.000245
vt 0.311205 0.000245
vt 0.092772 0.000245
vt 0.342410 0.000245
vt 0.123977 0.000245
vt 0.373615 0.000245
vt 0.155182 0.000245
vt 0.404819 0.000245
vt 0.186386 0.000245
vt 0.123977 0.499520
vt 0.092772 0.499520
vt 0.092772 0.468315
vt 0.123977 0.468315
vt 0.373615 0.499520
vt 0.342410 0.499520
vt 0.342410 0.468315
vt 0.373615 0.468315
vt 0.155182 0.499520
vt 0.155182 0.468315
vt 0.404819 0.499520
vt 0.404819 0.468315
vt 0.186386 0.499520
vt 0.186386 0.468315
vt 0.436024 0.499520
vt 0.436024 0.468315
vt 0.217591 0.499520
vt 0.217591 0.468315
vt 0.467229 0.499520
vt 0.467229 0.468315
vt 0.248796 0.499520
vt 0.248796 0.468315
vt 0.030363 0.499520
vt 0.000418 0.484548
vt 0.000245 0.483375
vt 0.030363 0.468315
vt 0.498434 0.483918
vt 0.280001 0.499520
vt 0.280001 0.468315
vt 0.061568 0.499520
vt 0.061568 0.468315
vt 0.311205 0.499520
vt 0.311205 0.468315
vt 0.217591 0.437111
vt 0.248796 0.437111
vt 0.000245 0.453256
vt 0.000279 0.452152
vt 0.030363 0.437111
vt 0.498434 0.452713
vt 0.467229 0.437111
vt 0.280001 0.437111
vt 0.061568 0.437111
vt 0.311205 0.437111
vt 0.092772 0.437111
vt 0.342410 0.437111
vt 0.123977 0.437111
vt 0.373615 0.437111
vt 0.155182 0.437111
vt 0.404819 0.437111
vt 0.186386 0.437111
vt 0.436024 0.437111
vt 0.342410 0.405906
vt 0.373615 0.405906
vt 0.123977 0.405906
vt 0.155182 0.405906
vt 0.404819 0.405906
vt 0.186386 0.405906
vt 0.436024 0.405906
vt 0.217591 0.405906
vt 0.467229 0.405906
vt 0.248796 0.405906
vt 0.000279 0.422069
vt 0.000595 0.420790
vt 0.030363 0.405906
vt 0.498434 0.421508
vt 0.280001 0.405906
vt 0.061568 0.405906
vt 0.311205 0.405906
vt 0.092772 0.405906
vt 0.000595 0.391022
vt 0.001703 0.389031
vt 0.498434 0.390304
vt 0.858877 0.500009
vt 0.861422 0.541030
vt 0.863203 0.573555
vt 0.863750 0.587737
vt 0.863862 0.598304
vt 0.863665 0.610439
vt 0.862939 0.630599
vt 0.861136 0.666422
vt 0.861790 0.677342
vt 0.862964 0.704561
vt 0.863335 0.723146
vt 0.863211 0.741172
vt 0.862418 0.766356
vt 0.859474 0.827781
vt 0.859181 0.832867
vt 0.862295 0.885065
vt 0.863504 0.916627
vt 0.863862 0.943121
vt 0.863528 0.973900
vt 0.862725 0.999270
vt 0.864351 0.999285
vt 0.867980 0.832860
vt 0.868843 0.666434
vt 0.864429 0.569451
vt 0.864351 0.500009
vt 0.867558 0.808838
vt 0.548358 0.000245
vt 0.563992 0.000245
vt 0.567450 0.001734
vt 0.572973 0.000245
vt 0.802832 0.145770
vt 0.004446 0.832860
vt 0.008783 0.741009
vt 0.009233 0.737675
vt 0.000245 0.999285
vt 0.002275 0.533450
vt 0.000245 0.500009
vt 0.548358 0.499520
vt 0.572973 0.499520
vt 0.567503 0.487611
vt 0.563992 0.499520
vn -0.8703 -0.1364 0.4733
vn -0.0459 -0.6906 0.7218
vn -0.0896 0.7241 0.6838
vn 0.0983 0.7794 0.6188
vn 0.0562 0.7820 0.6207
vn -0.1119 0.7720 0.6257
vn -0.2721 0.7491 0.6040
vn -0.3097 0.7387 0.5986
vn -0.1122 0.7131 0.6920
vn 0.8473 0.0140 0.5309
vn 0.6012 -0.7189 -0.3489
vn 0.4577 -0.7583 -0.4642
vn 0.3243 -0.7890 -0.5218
vn 0.1057 -0.8231 -0.5579
vn -0.1226 -0.8309 -0.5427
vn -0.2657 -0.8248 -0.4991
vn -0.4216 -0.8133 -0.4011
vn -0.6606 -0.4620 -0.5917
vn -0.5081 0.3464 -0.7885
vn -0.3792 0.4523 -0.8072
vn -0.2564 0.5253 -0.8114
vn -0.2885 0.5376 -0.7923
vn -0.3942 0.5579 -0.7302
vn -0.2613 0.5033 -0.8236
vn -0.1285 0.4194 -0.8986
vn 0.2175 -0.1251 -0.9680
vn 0.0728 -0.8147 -0.5753
vn -0.0873 -0.8556 -0.5101
vn 0.0646 -0.8475 -0.5267
vn -0.0443 -0.8309 -0.5547
vn -0.0193 -0.8811 -0.4725
vn 0.0706 -0.8240 -0.5622
vn -0.0374 -0.8667 -0.4973
vn 0.8913 -0.3307 0.3102
vn -0.8148 -0.2430 -0.5263
vn 0.0962 -0.9376 0.3340
vn -0.0356 -0.9920 0.1212
vn -0.7723 -0.2553 0.5817
vn -0.9140 -0.3057 0.2666
vn -0.2809 -0.9425 -0.1809
vn -0.8340 -0.1598 0.5281
vn 0.3062 -0.8770 0.3703
vn 0.9237 0.0353 0.3815
vn 0.9568 0.0869 0.2774
vn 0.1953 -0.9472 0.2540
vn 0.8818 -0.1852 0.4337
vn -0.0050 -0.9998 0.0176
vn -0.1982 -0.9408 -0.2751
vn 0.1847 -0.9133 0.3630
vn 0.0703 -0.9668 0.2457
vn -0.0537 -0.9985 -0.0039
vn -0.1286 -0.9417 -0.3109
vn 0.5989 -0.7794 -0.1839
vn 0.0516 -0.6377 -0.7685
vn -0.3491 -0.3574 0.8662
vn 0.1563 -0.6039 0.7815
vn 0.2278 -0.9313 0.2842
vn 0.1844 -0.9673 0.1737
vn 0.1390 -0.9871 -0.0792
vn 0.1117 -0.9277 -0.3561
vn 0.2604 -0.9193 0.2951
vn 0.6177 -0.7433 0.2566
vn 0.2842 -0.9510 0.1214
vn 0.3247 -0.9370 -0.1284
vn 0.3453 -0.8665 -0.3605
vn 0.1974 -0.9200 0.3384
vn 0.2124 -0.9631 0.1652
vn 0.3116 -0.9436 -0.1120
vn 0.4250 -0.8398 -0.3377
vn 0.4291 -0.8960 -0.1145
vn 0.4395 -0.8959 0.0651
vn 0.4414 -0.8953 -0.0597
vn 0.5511 -0.7941 -0.2563
vn 0.6398 -0.1405 -0.7556
vn 0.9403 0.0167 -0.3399
vn 0.9911 0.1158 0.0646
vn 0.9389 0.1323 0.3177
vn 0.2019 0.7431 -0.6379
vn 0.3326 0.9031 -0.2715
vn 0.2577 0.9499 0.1764
vn 0.0521 0.8537 0.5181
vn -0.1278 0.8757 -0.4657
vn -0.0822 0.9849 -0.1523
vn -0.1634 0.9666 0.1975
vn -0.2747 0.8500 0.4495
vn -0.3223 0.8912 -0.3190
vn -0.3095 0.9481 -0.0730
vn -0.3154 0.9267 0.2043
vn -0.3096 0.8454 0.4353
vn 0.1561 0.5455 -0.8234
vn 0.1339 0.4248 -0.8953
vn 0.7828 -0.5322 0.3224
vn -0.3390 0.6706 0.6598
vn -0.1489 0.8501 0.5051
vn -0.2479 0.9036 -0.3493
vn -0.1937 0.9705 -0.1438
vn -0.1413 0.9781 0.1524
vn -0.1162 0.8971 0.4262
vn -0.1633 0.8874 -0.4311
vn -0.6958 0.7121 -0.0930
vn -0.2498 0.5635 -0.7874
vn -0.0580 0.9749 -0.2148
vn 0.0504 0.9948 0.0882
vn 0.0896 0.9143 0.3950
vn -0.4206 0.8072 -0.4141
vn -0.3175 0.9379 -0.1398
vn -0.0990 0.9857 0.1365
vn 0.0632 0.9091 0.4118
vn -0.6895 0.6022 -0.4024
vn -0.6847 0.7285 0.0205
vn -0.4708 0.8278 0.3049
vn -0.2210 0.8216 0.5255
vn -0.1763 0.8715 -0.4575
vn -0.2961 0.8834 -0.3631
vn -0.6857 -0.0807 -0.7233
vn -0.7029 -0.7079 0.0688
vn -0.6901 0.7051 0.1627
vn -0.5837 0.7439 0.3253
vn -0.5956 0.7503 0.2867
vn -0.6406 0.7568 0.1299
vn -0.6589 0.7516 -0.0306
vn -0.6631 0.7452 -0.0699
vn -0.7032 0.6973 0.1389
vn -0.3118 -0.0776 0.9470
vn 0.4827 -0.7609 0.4336
vn 0.5660 -0.7845 0.2533
vn 0.5910 -0.8000 0.1028
vn 0.5737 -0.8101 -0.1204
vn 0.5052 -0.7963 -0.3326
vn 0.4297 -0.7796 -0.4555
vn 0.2986 -0.7597 -0.5777
vn 0.4084 -0.4775 -0.7779
vn 0.6661 0.3478 -0.6598
vn 0.7158 0.4433 -0.5394
vn 0.7515 0.5083 -0.4205
vn 0.7259 0.5241 -0.4454
vn 0.6390 0.5563 -0.5311
vn 0.7599 0.4859 -0.4318
vn 0.8585 0.3897 -0.3334
vn 0.9848 -0.1610 -0.0651
vn 0.5316 -0.8375 -0.1259
vn 0.4272 -0.8652 -0.2624
vn 0.4846 -0.8672 -0.1144
vn 0.4834 -0.8437 -0.2333
vn 0.4005 -0.8969 -0.1874
vn 0.5183 -0.8472 -0.1166
vn 0.4213 -0.8890 -0.1793
vn -0.3118 -0.9469 0.0779
vn -0.0571 -0.4445 -0.8939
vn -0.3540 -0.9271 0.1227
vn -0.4958 -0.2354 -0.8359
vn -0.1616 -0.9841 -0.0734
vn -0.7837 -0.1788 -0.5948
vn 0.1026 -0.9119 -0.3973
vn -0.7432 -0.0978 -0.6618
vn -0.3411 -0.8751 0.3433
vn -0.2479 -0.9482 0.1983
vn -0.0461 -0.9962 -0.0736
vn 0.2175 -0.9140 -0.3425
vn -0.3623 -0.9054 0.2213
vn -0.2683 -0.9607 0.0715
vn -0.0337 -0.9911 -0.1286
vn 0.2708 -0.9193 -0.2854
vn 0.3581 -0.9078 -0.2180
vn -0.3418 -0.5151 -0.7860
vn -0.8110 -0.3588 0.4621
vn -0.1155 -0.5915 0.7980
vn -0.2715 -0.9321 0.2395
vn -0.1661 -0.9726 0.1628
vn 0.0905 -0.9950 0.0410
vn 0.3729 -0.9256 -0.0641
vn -0.2757 -0.9209 0.2756
vn 0.4690 -0.6350 0.6138
vn -0.0891 -0.9649 0.2468
vn 0.1853 -0.9590 0.2145
vn 0.4325 -0.8858 0.1680
vn -0.3339 -0.9149 0.2265
vn -0.1523 -0.9704 0.1873
vn 0.1640 -0.9650 0.2047
vn 0.4286 -0.8664 0.2563
vn 0.1955 -0.9260 0.3229
vn 0.0094 -0.9204 0.3909
vn 0.1385 -0.9256 0.3521
vn 0.3732 -0.8333 0.4078
vn 0.8916 -0.2154 0.3983
vn 0.5641 -0.0544 0.8239
vn 0.1515 0.0432 0.9875
vn -0.1030 0.0410 0.9938
vn 0.7167 0.6945 0.0623
vn 0.3843 0.8676 0.3155
vn -0.0991 0.9223 0.3735
vn -0.4939 0.8300 0.2590
vn 0.4762 0.8568 -0.1976
vn 0.1692 0.9842 -0.0520
vn -0.2188 0.9753 -0.0304
vn -0.5065 0.8590 -0.0742
vn 0.2790 0.8918 -0.3560
vn 0.0344 0.9668 -0.2533
vn -0.2629 0.9474 -0.1824
vn -0.5002 0.8587 -0.1114
vn 0.7230 0.4031 -0.5611
vn 0.9975 0.0322 0.0634
vn 0.3249 0.7933 0.5149
vn 0.3295 0.8994 -0.2871
vn 0.1355 0.9784 -0.1560
vn -0.7996 0.5503 -0.2405
vn 0.9277 -0.1941 -0.3189
vn -0.9887 0.1360 -0.0620
vn -0.1683 0.9855 -0.0217
vn -0.4449 0.8921 0.0781
vn 0.4351 0.8726 -0.2219
vn -0.3941 0.8579 0.3295
vn 0.3457 0.5015 -0.7931
vn 0.2385 0.9699 -0.0492
vn -0.9799 -0.1528 0.1283
vn -0.0557 0.9871 0.1498
vn -0.3648 0.8914 0.2687
vn 0.3560 0.8079 -0.4696
vn 0.0993 0.9528 -0.2869
vn -0.1395 0.9901 0.0155
vn -0.3866 0.8885 0.2472
vn 0.2725 0.6182 -0.7372
vn -0.1596 0.7701 -0.6176
vn -0.4027 0.8610 -0.3106
vn -0.5664 0.8241 -0.0008
vn -0.1053 0.1509 -0.9829
vn 0.4102 0.2831 -0.8669
vn 0.8235 -0.5120 0.2444
vn 0.2511 -0.9056 0.3418
vn 0.2977 0.8030 0.5163
vn -0.1546 0.7252 0.6710
vn -0.8351 0.0156 0.5499
vn -0.8507 -0.0068 0.5256
vn -0.0272 -0.0056 -0.9996
vn -0.0783 0.0041 -0.9969
vn -0.8598 0.0075 0.5105
vn -0.0605 -0.0237 -0.9979
vn -0.8488 0.1053 0.5181
vn -0.1396 -0.0193 -0.9900
vn -0.7336 0.3497 0.5826
vn -0.0331 0.0051 -0.9994
vn -0.6923 0.3892 0.6076
vn -0.5357 0.5761 0.6173
vn -0.1587 0.2454 -0.9563
vn -0.2926 0.2408 -0.9254
vn -0.4986 0.6143 0.6116
vn -0.0495 0.0327 -0.9982
vn -0.4964 0.6556 0.5689
vn -0.1418 0.1856 -0.9723
vn -0.2711 0.7147 0.6447
vn -0.1551 0.3005 -0.9411
vn -0.2782 0.7457 0.6054
vn -0.0172 0.0374 -0.9991
vn -0.2467 0.7720 0.5857
vn -0.0750 0.1570 -0.9847
vn 0.8847 0.0165 0.4658
vn 0.8754 0.0308 0.4824
vn 0.8602 -0.0149 0.5097
vn 0.8775 -0.1556 0.4536
vn 0.7734 -0.4381 0.4581
vn 0.6370 -0.6571 0.4031
vn 0.5629 -0.7089 0.4248
vn 0.4684 -0.7849 0.4056
vn 0.3746 -0.8772 0.3004
vn 0.3697 -0.8240 0.4294
vn 0.3041 -0.8588 0.4122
vn 0.0035 -0.8430 -0.5378
vn 0.0000 -0.7010 -0.7131
vn 0.2729 -0.7010 -0.6588
vn 0.2093 -0.8489 -0.4853
vn 0.0000 0.4920 -0.8706
vn 0.0000 0.7705 -0.6374
vn 0.2439 0.7705 -0.5889
vn 0.3331 0.4920 -0.8043
vn -0.0358 -0.9956 -0.0860
vn 0.0388 -0.9917 -0.1225
vn 0.0000 0.2269 -0.9739
vn 0.3727 0.2269 -0.8998
vn -0.1911 -0.8943 0.4046
vn -0.2565 -0.9133 0.3162
vn 0.0000 0.0037 -1.0000
vn 0.3827 0.0037 -0.9239
vn 0.0000 0.8300 0.5578
vn -0.6861 0.7189 0.1120
vn -0.2027 0.4254 -0.8820
vn 0.5421 0.8390 -0.0463
vn -0.2134 0.8300 0.5153
vn 0.0085 -0.9997 0.0220
vn 0.0000 -0.1930 -0.9812
vn 0.3755 -0.1930 -0.9065
vn 0.0000 0.9004 0.4351
vn -0.1665 0.9004 0.4020
vn 0.0000 -0.3784 -0.9256
vn 0.3542 -0.3784 -0.8552
vn 0.0000 0.9904 0.1380
vn -0.0528 0.9904 0.1275
vn 0.0000 -0.5500 -0.8351
vn 0.3196 -0.5500 -0.7716
vn 0.0000 0.9643 -0.2648
vn 0.1014 0.9643 -0.2447
vn 0.5905 -0.5500 -0.5905
vn 0.5042 -0.7010 -0.5042
vn 0.1873 0.9643 -0.1873
vn 0.4507 0.7705 -0.4507
vn 0.3680 -0.8552 -0.3649
vn 0.6156 0.4920 -0.6156
vn 0.1183 -0.9876 -0.1029
vn 0.6887 0.2269 -0.6887
vn -0.2364 -0.9351 0.2638
vn 0.7071 0.0037 -0.7071
vn 0.4127 0.8947 -0.1708
vn -0.3944 0.8300 0.3944
vn 0.6938 -0.1930 -0.6938
vn -0.3077 0.9004 0.3077
vn 0.6545 -0.3784 -0.6545
vn -0.0976 0.9904 0.0976
vn 0.3003 0.8925 -0.3365
vn -0.5153 0.8300 0.2134
vn -0.3109 -0.9282 0.2044
vn 0.9239 0.0037 -0.3827
vn 0.9065 -0.1930 -0.3755
vn -0.4020 0.9004 0.1665
vn 0.8552 -0.3784 -0.3542
vn -0.1275 0.9904 0.0528
vn 0.7716 -0.5500 -0.3196
vn 0.2447 0.9643 -0.1014
vn 0.6588 -0.7010 -0.2729
vn 0.5889 0.7705 -0.2439
vn 0.4774 -0.8557 -0.1993
vn 0.8043 0.4920 -0.3331
vn 0.1318 -0.9904 -0.0403
vn 0.8998 0.2269 -0.3727
vn 0.2648 0.9643 0.0000
vn 0.6374 0.7705 0.0000
vn 0.7131 -0.7010 0.0000
vn 0.5191 -0.8547 -0.0008
vn 0.8706 0.4920 0.0000
vn 0.0914 -0.9945 0.0500
vn 0.9739 0.2269 0.0000
vn -0.3911 -0.8966 0.2076
vn 1.0000 0.0037 0.0000
vn 0.2333 0.8339 -0.5002
vn -0.5578 0.8300 0.0000
vn 0.9812 -0.1930 0.0000
vn -0.4351 0.9004 0.0000
vn 0.9256 -0.3784 0.0000
vn -0.1380 0.9904 0.0000
vn 0.8351 -0.5500 0.0000
vn 0.9239 0.0037 0.3827
vn 0.9065 -0.1930 0.3755
vn -0.5153 0.8300 -0.2134
vn -0.4020 0.9004 -0.1665
vn 0.8552 -0.3784 0.3542
vn -0.1275 0.9904 -0.0528
vn 0.7716 -0.5500 0.3196
vn 0.2447 0.9643 0.1014
vn 0.6588 -0.7010 0.2729
vn 0.5889 0.7705 0.2439
vn 0.4881 -0.8502 0.1970
vn 0.8043 0.4920 0.3331
vn 0.1053 -0.9944 0.0072
vn 0.8998 0.2269 0.3727
vn -0.2984 -0.9329 -0.2014
vn 0.7090 0.4328 0.5568
vn -0.4117 0.7028 0.5801
vn 0.5042 -0.7010 0.5042
vn 0.3752 -0.8483 0.3736
vn 0.4507 0.7705 0.4507
vn 0.6156 0.4920 0.6156
vn 0.0832 -0.9958 0.0374
vn 0.6887 0.2269 0.6887
vn -0.2347 -0.8973 -0.3737
vn 0.7071 0.0037 0.7071
vn -0.3378 0.7944 0.5047
vn -0.3944 0.8300 -0.3944
vn 0.6938 -0.1930 0.6938
vn -0.3077 0.9004 -0.3077
vn 0.6545 -0.3784 0.6545
vn -0.0976 0.9904 -0.0976
vn 0.5905 -0.5500 0.5905
vn 0.1873 0.9643 0.1873
vn -0.2134 0.8300 -0.5153
vn -0.1665 0.9004 -0.4020
vn 0.3755 -0.1930 0.9065
vn 0.3542 -0.3784 0.8552
vn -0.0528 0.9904 -0.1275
vn 0.3196 -0.5500 0.7716
vn 0.1014 0.9643 0.2447
vn 0.2729 -0.7010 0.6588
vn 0.2439 0.7705 0.5889
vn 0.2008 -0.8474 0.4914
vn 0.3331 0.4920 0.8043
vn -0.0097 -0.9933 0.1150
vn 0.3727 0.2269 0.8998
vn -0.3225 -0.8986 -0.2973
vn 0.3827 0.0037 0.9239
vn -0.1927 0.8709 0.4520
vn 0.0000 0.7705 0.6374
vn 0.0000 0.4920 0.8706
vn -0.0029 -0.8523 0.5230
vn -0.0128 -0.9974 0.0712
vn 0.0000 0.2269 0.9739
vn -0.0170 -0.9207 -0.3900
vn 0.0000 0.0037 1.0000
vn 0.0002 0.9012 0.4334
vn 0.0000 0.8300 -0.5578
vn 0.0000 -0.1930 0.9812
vn 0.0000 0.9004 -0.4351
vn 0.0000 -0.3784 0.9256
vn 0.0000 0.9904 -0.1380
vn 0.0000 -0.5500 0.8351
vn 0.0000 0.9643 0.2648
vn 0.0000 -0.7010 0.7131
vn -0.3755 -0.1930 0.9065
vn -0.3542 -0.3784 0.8552
vn 0.1665 0.9004 -0.4020
vn 0.0528 0.9904 -0.1275
vn -0.3196 -0.5500 0.7716
vn -0.1014 0.9643 0.2447
vn -0.2729 -0.7010 0.6588
vn -0.2439 0.7705 0.5889
vn -0.1983 -0.8494 0.4891
vn -0.3331 0.4920 0.8043
vn -0.0020 -0.9962 0.0870
vn -0.3727 0.2269 0.8998
vn 0.2301 -0.9071 -0.3524
vn -0.3827 0.0037 0.9239
vn 0.1935 0.8712 0.4512
vn 0.2134 0.8300 -0.5153
vn -0.3723 -0.8488 0.3752
vn -0.0468 -0.9945 0.0936
vn -0.6156 0.4920 0.6156
vn -0.6887 0.2269 0.6887
vn 0.3604 -0.9115 -0.1983
vn -0.7071 0.0037 0.7071
vn 0.3387 0.7943 0.5043
vn 0.3944 0.8300 -0.3944
vn -0.6938 -0.1930 0.6938
vn 0.3077 0.9004 -0.3077
vn -0.6545 -0.3784 0.6545
vn 0.0976 0.9904 -0.0976
vn -0.5905 -0.5500 0.5905
vn -0.1873 0.9643 0.1873
vn -0.5042 -0.7010 0.5042
vn -0.4507 0.7705 0.4507
vn -0.8552 -0.3784 0.3542
vn -0.7716 -0.5500 0.3196
vn 0.1275 0.9904 -0.0528
vn -0.2447 0.9643 0.1014
vn -0.6588 -0.7010 0.2729
vn -0.5889 0.7705 0.2439
vn -0.4916 -0.8479 0.1986
vn -0.8043 0.4920 0.3331
vn -0.1235 -0.9904 0.0617
vn -0.8998 0.2269 0.3727
vn 0.3892 -0.9188 -0.0662
vn -0.9239 0.0037 0.3827
vn -0.7882 0.4414 0.4289
vn -0.3032 0.7824 -0.5439
vn 0.5153 0.8300 -0.2134
vn -0.9065 -0.1930 0.3755
vn 0.4020 0.9004 -0.1665
vn -0.1341 -0.9908 -0.0202
vn 0.3768 -0.9231 -0.0765
vn -0.9739 0.2269 0.0000
vn -1.0000 0.0037 0.0000
vn -0.3108 0.8648 -0.3944
vn 0.5578 0.8300 0.0000
vn -0.9812 -0.1930 0.0000
vn 0.4351 0.9004 0.0000
vn -0.9256 -0.3784 0.0000
vn 0.1380 0.9904 0.0000
vn -0.8351 -0.5500 0.0000
vn -0.2648 0.9643 0.0000
vn -0.7131 -0.7010 0.0000
vn -0.6374 0.7705 0.0000
vn -0.5225 -0.8526 -0.0004
vn -0.8706 0.4920 0.0000
vn 0.1275 0.9904 0.0528
vn -0.2447 0.9643 -0.1014
vn -0.7716 -0.5500 -0.3196
vn -0.6588 -0.7010 -0.2729
vn -0.5889 0.7705 -0.2439
vn -0.4788 -0.8544 -0.2019
vn -0.8043 0.4920 -0.3331
vn -0.1245 -0.9903 -0.0616
vn -0.8998 0.2269 -0.3727
vn 0.3306 -0.9333 0.1402
vn -0.9239 0.0037 -0.3827
vn -0.3811 0.8987 -0.2167
vn 0.5153 0.8300 0.2134
vn -0.9065 -0.1930 -0.3755
vn 0.4020 0.9004 0.1665
vn -0.8552 -0.3784 -0.3542
vn -0.6887 0.2269 -0.6887
vn -0.7071 0.0037 -0.7071
vn -0.4791 0.8760 -0.0549
vn 0.3944 0.8300 0.3944
vn 0.3312 -0.9149 0.2309
vn -0.6938 -0.1930 -0.6938
vn 0.3077 0.9004 0.3077
vn -0.6545 -0.3784 -0.6545
vn 0.0976 0.9904 0.0976
vn -0.5905 -0.5500 -0.5905
vn -0.1873 0.9643 -0.1873
vn -0.5042 -0.7010 -0.5042
vn -0.4507 0.7705 -0.4507
vn -0.3731 -0.8525 -0.3659
vn -0.6156 0.4920 -0.6156
vn -0.0708 -0.9941 -0.0817
vn -0.3196 -0.5500 -0.7716
vn -0.2729 -0.7010 -0.6588
vn -0.1014 0.9643 -0.2447
vn -0.2439 0.7705 -0.5889
vn -0.2117 -0.8455 -0.4901
vn -0.3331 0.4920 -0.8043
vn -0.0221 -0.9962 -0.0837
vn -0.3727 0.2269 -0.8998
vn 0.2852 -0.9086 0.3050
vn -0.3827 0.0037 -0.9239
vn -0.5827 0.8100 0.0663
vn 0.2134 0.8300 0.5153
vn -0.3755 -0.1930 -0.9065
vn 0.1665 0.9004 0.4020
vn -0.3542 -0.3784 -0.8552
vn 0.0528 0.9904 0.1275
vn -0.3844 0.8607 -0.3339
usemtl Material.001
s 1
f 21/1/1 2/2/2 22/3/3
f 22/3/3 2/4/2 27/5/4
f 27/5/4 2/6/2 32/7/5
f 32/7/5 2/8/2 37/9/6
f 37/9/6 2/10/2 42/11/7
f 42/11/7 2/12/2 47/13/8
f 47/13/8 2/14/2 52/15/9
f 52/15/9 2/16/2 57/17/10
f 57/17/10 2/18/2 62/19/11
f 62/19/11 2/20/2 67/21/12
f 67/21/12 2/22/2 72/23/13
f 72/23/13 2/24/2 77/25/14
f 77/25/14 2/26/2 82/27/15
f 82/27/15 2/28/2 87/29/16
f 87/29/16 2/30/2 92/31/17
f 92/31/17 2/32/2 21/33/1
f 1/34/18 3/35/19 4/36/20 5/37/21 6/38/22 7/39/23 8/40/24 9/41/25 10/42/26 11/43/27 12/44/28 13/45/29 14/46/30 15/47/31 16/48/32 17/49/33
f 17/50/33 518/51/34 519/52/35 1/53/18
f 95/54/36 94/55/37 19/56/38 18/57/39
f 94/55/37 93/58/40 20/59/41 19/56/38
f 93/58/40 92/31/17 21/33/1 20/59/41
f 16/60/32 91/61/42 516/62/43 517/63/44 518/51/34 17/50/33
f 91/61/42 90/64/45 95/54/36 522/65/46 516/62/43
f 90/64/45 89/66/47 94/55/37 95/54/36
f 89/66/47 88/67/48 93/58/40 94/55/37
f 88/67/48 87/29/16 92/31/17 93/58/40
f 15/68/31 86/69/49 91/61/42 16/60/32
f 86/69/49 85/70/50 90/64/45 91/61/42
f 85/70/50 84/71/51 89/66/47 90/64/45
f 84/71/51 83/72/52 88/67/48 89/66/47
f 83/72/52 82/27/15 87/29/16 88/67/48
f 14/73/30 510/74/53 511/75/54 512/76/55 513/77/56 81/78/57 86/69/49 15/68/31
f 81/78/57 80/79/58 85/70/50 86/69/49
f 80/79/58 79/80/59 84/71/51 85/70/50
f 79/80/59 78/81/60 83/72/52 84/71/51
f 78/81/60 77/25/14 82/27/15 83/72/52
f 13/82/29 76/83/61 81/78/57 513/77/56 506/84/62 510/74/53 14/73/30
f 76/83/61 75/85/63 80/79/58 81/78/57
f 75/85/63 74/86/64 79/80/59 80/79/58
f 74/86/64 73/87/65 78/81/60 79/80/59
f 73/87/65 72/23/13 77/25/14 78/81/60
f 12/88/28 71/89/66 76/83/61 13/82/29
f 71/89/66 70/90/67 75/85/63 76/83/61
f 70/90/67 69/91/68 74/86/64 75/85/63
f 69/91/68 68/92/69 73/87/65 74/86/64
f 68/92/69 67/21/12 72/23/13 73/87/65
f 11/93/27 66/94/70 71/89/66 12/88/28
f 66/94/70 65/95/71 70/90/67 71/89/66
f 65/95/71 64/96/72 69/91/68 70/90/67
f 64/96/72 63/97/73 68/92/69 69/91/68
f 63/97/73 62/19/11 67/21/12 68/92/69
f 10/98/26 61/99/74 66/94/70 11/93/27
f 61/99/74 60/100/75 65/95/71 66/94/70
f 60/100/75 59/101/76 64/96/72 65/95/71
f 59/101/76 58/102/77 63/97/73 64/96/72
f 58/102/77 57/17/10 62/19/11 63/97/73
f 9/103/25 56/104/78 61/99/74 10/98/26
f 56/104/78 55/105/79 60/100/75 61/99/74
f 55/105/79 54/106/80 59/101/76 60/100/75
f 54/106/80 53/107/81 58/102/77 59/101/76
f 53/107/81 52/15/9 57/17/10 58/102/77
f 8/108/24 51/109/82 56/104/78 9/103/25
f 51/109/82 50/110/83 55/105/79 56/104/78
f 50/110/83 49/111/84 54/106/80 55/105/79
f 49/111/84 48/112/85 53/107/81 54/106/80
f 48/112/85 47/13/8 52/15/9 53/107/81
f 7/113/23 46/114/86 51/109/82 8/108/24
f 46/114/86 45/115/87 50/110/83 51/109/82
f 45/115/87 44/116/88 49/111/84 50/110/83
f 44/116/88 43/117/89 48/112/85 49/111/84
f 43/117/89 42/11/7 47/13/8 48/112/85
f 6/118/22 507/119/90 505/120/91 504/121/92 508/122/93 509/123/94 41/124/95 46/114/86 7/113/23
f 41/124/95 40/125/96 45/115/87 46/114/86
f 40/125/96 39/126/97 44/116/88 45/115/87
f 39/126/97 38/127/98 43/117/89 44/116/88
f 38/127/98 37/9/6 42/11/7 43/117/89
f 5/128/21 36/129/99 41/124/95 509/123/94 515/130/100 514/131/101 507/119/90 6/118/22
f 36/129/99 35/132/102 40/125/96 41/124/95
f 35/132/102 34/133/103 39/126/97 40/125/96
f 34/133/103 33/134/104 38/127/98 39/126/97
f 33/134/104 32/7/5 37/9/6 38/127/98
f 4/135/20 31/136/105 36/129/99 5/128/21
f 31/136/105 30/137/106 35/132/102 36/129/99
f 30/137/106 29/138/107 34/133/103 35/132/102
f 29/138/107 28/139/108 33/134/104 34/133/103
f 28/139/108 27/5/4 32/7/5 33/134/104
f 3/140/19 26/141/109 31/136/105 4/135/20
f 26/141/109 25/142/110 30/137/106 31/136/105
f 25/142/110 24/143/111 29/138/107 30/137/106
f 24/143/111 23/144/112 28/139/108 29/138/107
f 23/144/112 22/3/3 27/5/4 28/139/108
f 1/145/18 519/146/35 521/147/113 520/148/114 26/141/109 3/140/19
f 18/149/39 19/150/38 24/143/111 25/142/110
f 19/150/38 20/151/41 23/144/112 24/143/111
f 20/151/41 21/1/1 22/3/3 23/144/112
f 117/152/115 97/153/116 118/154/117
f 118/154/117 97/155/116 123/156/118
f 123/156/118 97/157/116 128/158/119
f 128/158/119 97/159/116 133/160/120
f 133/160/120 97/161/116 138/162/121
f 138/162/121 97/163/116 143/164/122
f 143/164/122 97/165/116 148/166/123
f 148/166/123 97/167/116 153/168/124
f 153/168/124 97/169/116 158/170/125
f 158/170/125 97/171/116 163/172/126
f 163/172/126 97/173/116 168/174/127
f 168/174/127 97/175/116 173/176/128
f 173/176/128 97/177/116 178/178/129
f 178/178/129 97/179/116 183/180/130
f 183/180/130 97/181/116 188/182/131
f 188/182/131 97/183/116 117/184/115
f 96/185/132 98/186/133 99/187/134 100/188/135 101/189/136 102/190/137 103/191/138 104/192/139 105/193/140 106/194/141 107/195/142 108/196/143 109/197/144 110/198/145 111/199/146 112/200/147
f 112/201/147 192/202/148 113/203/149 96/204/132
f 192/202/148 191/205/150 114/206/151 113/203/149
f 191/205/150 190/207/152 115/208/153 114/206/151
f 190/207/152 189/209/154 116/210/155 115/208/153
f 189/209/154 188/182/131 117/184/115 116/210/155
f 111/211/146 187/212/156 192/202/148 112/201/147
f 187/212/156 186/213/157 191/205/150 192/202/148
f 186/213/157 185/214/158 190/207/152 191/205/150
f 185/214/158 184/215/159 189/209/154 190/207/152
f 184/215/159 183/180/130 188/182/131 189/209/154
f 110/216/145 182/217/160 187/212/156 111/211/146
f 182/217/160 181/218/161 186/213/157 187/212/156
f 181/218/161 180/219/162 185/214/158 186/213/157
f 180/219/162 179/220/163 184/215/159 185/214/158
f 179/220/163 178/178/129 183/180/130 184/215/159
f 109/221/144 494/222/164 502/223/165 503/224/166 496/225/167 177/226/168 182/217/160 110/216/145
f 177/226/168 176/227/169 181/218/161 182/217/160
f 176/227/169 175/228/170 180/219/162 181/218/161
f 175/228/170 174/229/171 179/220/163 180/219/162
f 174/229/171 173/176/128 178/178/129 179/220/163
f 108/230/143 172/231/172 177/226/168 496/225/167 495/232/173 494/222/164 109/221/144
f 172/231/172 171/233/174 176/227/169 177/226/168
f 171/233/174 170/234/175 175/228/170 176/227/169
f 170/234/175 169/235/176 174/229/171 175/228/170
f 169/235/176 168/174/127 173/176/128 174/229/171
f 107/236/142 167/237/177 172/231/172 108/230/143
f 167/237/177 166/238/178 171/233/174 172/231/172
f 166/238/178 165/239/179 170/234/175 171/233/174
f 165/239/179 164/240/180 169/235/176 170/234/175
f 164/240/180 163/172/126 168/174/127 169/235/176
f 106/241/141 162/242/181 167/237/177 107/236/142
f 162/242/181 161/243/182 166/238/178 167/237/177
f 161/243/182 160/244/183 165/239/179 166/238/178
f 160/244/183 159/245/184 164/240/180 165/239/179
f 159/245/184 158/170/125 163/172/126 164/240/180
f 105/246/140 157/247/185 162/242/181 106/241/141
f 157/247/185 156/248/186 161/243/182 162/242/181
f 156/248/186 155/249/187 160/244/183 161/243/182
f 155/249/187 154/250/188 159/245/184 160/244/183
f 154/250/188 153/168/124 158/170/125 159/245/184
f 104/251/139 152/252/189 157/247/185 105/246/140
f 152/252/189 151/253/190 156/248/186 157/247/185
f 151/253/190 150/254/191 155/249/187 156/248/186
f 150/254/191 149/255/192 154/250/188 155/249/187
f 149/255/192 148/166/123 153/168/124 154/250/188
f 103/256/138 147/257/193 152/252/189 104/251/139
f 147/257/193 146/258/194 151/253/190 152/252/189
f 146/258/194 145/259/195 150/254/191 151/253/190
f 145/259/195 144/260/196 149/255/192 150/254/191
f 144/260/196 143/164/122 148/166/123 149/255/192
f 102/261/137 142/262/197 147/257/193 103/256/138
f 142/262/197 141/263/198 146/258/194 147/257/193
f 141/263/198 140/264/199 145/259/195 146/258/194
f 140/264/199 139/265/200 144/260/196 145/259/195
f 139/265/200 138/162/121 143/164/122 144/260/196
f 101/266/136 497/267/201 499/268/202 498/269/203 137/270/204 142/262/197 102/261/137
f 137/270/204 136/271/205 525/272/206 524/273/207 523/274/208 142/262/197
f 136/271/205 135/275/209 140/264/199 141/263/198
f 135/275/209 134/276/210 139/265/200 140/264/199
f 134/276/210 133/160/120 138/162/121 139/265/200
f 100/277/135 132/278/211 521/279/113 519/280/35 518/281/34 517/282/44 137/270/204 498/269/203 501/283/212 500/284/213 497/267/201 101/266/136
f 132/278/211 131/285/214 136/271/205 137/270/204 517/282/44 516/286/43 522/287/46 526/288/215 520/289/114 521/279/113
f 131/285/214 130/290/216 135/275/209 136/271/205
f 130/290/216 129/291/217 134/276/210 135/275/209
f 129/291/217 128/158/119 133/160/120 134/276/210
f 99/292/134 127/293/218 132/278/211 100/277/135
f 127/293/218 126/294/219 131/285/214 132/278/211
f 126/294/219 125/295/220 130/290/216 131/285/214
f 125/295/220 124/296/221 129/291/217 130/290/216
f 124/296/221 123/156/118 128/158/119 129/291/217
f 98/297/133 122/298/222 127/293/218 99/292/134
f 122/298/222 121/299/223 126/294/219 127/293/218
f 121/299/223 120/300/224 125/295/220 126/294/219
f 120/300/224 119/301/225 124/296/221 125/295/220
f 119/301/225 118/154/117 123/156/118 124/296/221
f 96/302/132 113/303/149 122/298/222 98/297/133
f 113/303/149 114/304/151 121/299/223 122/298/222
f 114/304/151 115/305/153 120/300/224 121/299/223
f 115/305/153 116/306/155 119/301/225 120/300/224
f 116/306/155 117/152/115 118/154/117 119/301/225
f 208/307/226 193/308/227 194/309/228 209/310/229
f 209/310/229 194/309/228 195/311/230 221/312/231
f 194/313/228 193/314/227 195/315/230
f 221/312/231 195/311/230 193/316/227 208/317/226
f 233/318/232 232/319/233 197/320/234 196/321/235
f 232/319/233 231/322/236 198/323/237 197/320/234
f 231/322/236 230/324/238 199/325/239 198/323/237
f 230/324/238 503/326/166 502/327/165 199/325/239
f 229/328/240 512/329/55 511/330/54 200/331/241
f 228/332/242 227/333/243 202/334/244 201/335/245
f 227/333/243 226/336/246 203/337/247 202/334/244
f 226/336/246 225/338/248 204/339/249 203/337/247
f 225/338/248 224/340/250 205/341/251 204/339/249
f 224/340/250 223/342/252 206/343/253 205/341/251
f 223/342/252 222/344/254 207/345/255 206/343/253
f 222/344/254 221/312/231 208/317/226 207/345/255
f 220/346/256 219/347/257 232/319/233 233/318/232
f 219/347/257 218/348/258 231/322/236 232/319/233
f 218/348/258 217/349/259 230/324/238 231/322/236
f 217/349/259 495/350/173 496/351/167 503/326/166 230/324/238
f 216/352/260 506/353/62 513/354/56 512/329/55 229/328/240
f 215/355/261 214/356/262 226/336/246 227/333/243
f 214/356/262 213/357/263 225/338/248 226/336/246
f 213/357/263 212/358/264 224/340/250 225/338/248
f 212/358/264 211/359/265 223/342/252 224/340/250
f 211/359/265 210/360/266 222/344/254 223/342/252
f 210/360/266 209/310/229 221/312/231 222/344/254
f 196/361/235 197/362/234 219/347/257 220/346/256
f 197/362/234 198/363/237 218/348/258 219/347/257
f 198/363/237 199/364/239 217/349/259 218/348/258
f 199/364/239 502/365/165 494/366/164 495/350/173 217/349/259
f 200/367/241 511/368/54 510/369/53 506/353/62 216/352/260
f 201/370/245 202/371/244 215/355/261 504/372/92 505/373/91
f 202/371/244 203/374/247 214/356/262 215/355/261
f 203/374/247 204/375/249 213/357/263 214/356/262
f 204/375/249 205/376/251 212/358/264 213/357/263
f 205/376/251 206/377/253 211/359/265 212/358/264
f 206/377/253 207/378/255 210/360/266 211/359/265
f 207/378/255 208/307/226 209/310/229 210/360/266
f 244/379/267 243/380/268 258/381/269 259/382/270
f 237/383/271 236/384/272 251/385/273 252/386/274
f 245/387/275 244/379/267 259/382/270 260/388/276
f 238/389/277 237/383/271 252/386/274 253/390/278
f 246/391/279 245/387/275 260/388/276 261/392/280
f 239/393/281 238/389/277 253/390/278 254/394/282
f 234/395/283 481/396/284 475/397/285 476/398/286 247/399/287
f 367/400/288 246/391/279 261/392/280
f 240/401/289 239/393/281 254/394/282 255/402/290
f 473/403/291 234/395/283 247/399/287 248/404/292
f 241/405/293 240/401/289 255/402/290 256/406/294
f 474/407/295 473/403/291 248/404/292 249/408/296
f 242/409/297 241/405/293 256/406/294 257/410/298
f 235/411/299 474/407/295 249/408/296 250/412/300
f 243/380/268 242/409/297 257/410/298 258/381/269
f 236/384/272 235/411/299 250/412/300 251/385/273
f 258/381/269 257/410/298 272/413/301 273/414/302
f 251/385/273 250/412/300 265/415/303 266/416/304
f 259/382/270 258/381/269 273/414/302 274/417/305
f 252/386/274 251/385/273 266/416/304 267/418/306
f 260/388/276 259/382/270 274/417/305 275/419/307
f 253/390/278 252/386/274 267/418/306 268/420/308
f 261/392/280 260/388/276 275/419/307 276/421/309
f 254/394/282 253/390/278 268/420/308 269/422/310
f 247/399/287 476/423/286 477/424/311 262/425/312
f 367/426/288 261/392/280 276/421/309
f 255/402/290 254/394/282 269/422/310 270/427/313
f 248/404/292 247/399/287 262/425/312 263/428/314
f 256/406/294 255/402/290 270/427/313 271/429/315
f 249/408/296 248/404/292 263/428/314 264/430/316
f 257/410/298 256/406/294 271/429/315 272/413/301
f 250/412/300 249/408/296 264/430/316 265/415/303
f 262/425/312 477/431/311 478/432/317 277/433/318
f 367/434/288 276/421/309 291/435/319
f 270/427/313 269/422/310 284/436/320 285/437/321
f 263/428/314 262/425/312 277/433/318 278/438/322
f 271/429/315 270/427/313 285/437/321 286/439/323
f 264/430/316 263/428/314 278/438/322 279/440/324
f 272/413/301 271/429/315 286/439/323 287/441/325
f 265/415/303 264/430/316 279/440/324 280/442/326
f 273/414/302 272/413/301 287/441/325 288/443/327
f 266/416/304 265/415/303 280/442/326 281/444/328
f 274/417/305 273/414/302 288/443/327 289/445/329
f 267/418/306 266/416/304 281/444/328 282/446/330
f 275/419/307 274/417/305 289/445/329 290/447/331
f 268/420/308 267/418/306 282/446/330 283/448/332
f 276/421/309 275/419/307 290/447/331 291/435/319
f 269/422/310 268/420/308 283/448/332 284/436/320
f 281/444/328 280/442/326 295/449/333 296/450/334
f 289/445/329 288/443/327 303/451/335 304/452/336
f 282/446/330 281/444/328 296/450/334 297/453/337
f 290/447/331 289/445/329 304/452/336 305/454/338
f 283/448/332 282/446/330 297/453/337 298/455/339
f 291/435/319 290/447/331 305/454/338 306/456/340
f 284/436/320 283/448/332 298/455/339 299/457/341
f 277/433/318 478/458/317 479/459/342 292/460/343
f 367/461/288 291/435/319 306/456/340
f 285/437/321 284/436/320 299/457/341 300/462/344
f 278/438/322 277/433/318 292/460/343 293/463/345
f 286/439/323 285/437/321 300/462/344 301/464/346
f 279/440/324 278/438/322 293/463/345 294/465/347
f 287/441/325 286/439/323 301/464/346 302/466/348
f 280/442/326 279/440/324 294/465/347 295/449/333
f 288/443/327 287/441/325 302/466/348 303/451/335
f 300/462/344 299/457/341 314/467/349 315/468/350
f 293/463/345 292/460/343 307/469/351 308/470/352
f 301/464/346 300/462/344 315/468/350 316/471/353
f 294/465/347 293/463/345 308/470/352 309/472/354
f 302/466/348 301/464/346 316/471/353 317/473/355
f 295/449/333 294/465/347 309/472/354 310/474/356
f 303/451/335 302/466/348 317/473/355 318/475/357
f 296/450/334 295/449/333 310/474/356 311/476/358
f 304/452/336 303/451/335 318/475/357 319/477/359
f 297/453/337 296/450/334 311/476/358 312/478/360
f 305/454/338 304/452/336 319/477/359 320/479/361
f 298/455/339 297/453/337 312/478/360 313/480/362
f 306/456/340 305/454/338 320/479/361 321/481/363
f 299/457/341 298/455/339 313/480/362 314/467/349
f 292/460/343 479/482/342 483/483/364 484/484/365 307/469/351
f 367/485/288 306/456/340 321/481/363
f 319/477/359 318/475/357 333/486/366 334/487/367
f 312/478/360 311/476/358 326/488/368 327/489/369
f 320/479/361 319/477/359 334/487/367 335/490/370
f 313/480/362 312/478/360 327/489/369 328/491/371
f 321/481/363 320/479/361 335/490/370 336/492/372
f 314/467/349 313/480/362 328/491/371 329/493/373
f 307/469/351 484/494/365 485/495/374 322/496/375
f 367/497/288 321/481/363 336/492/372
f 315/468/350 314/467/349 329/493/373 330/498/376
f 308/470/352 307/469/351 322/496/375 323/499/377
f 316/471/353 315/468/350 330/498/376 331/500/378
f 309/472/354 308/470/352 323/499/377 324/501/379
f 317/473/355 316/471/353 331/500/378 332/502/380
f 310/474/356 309/472/354 324/501/379 325/503/381
f 318/475/357 317/473/355 332/502/380 333/486/366
f 311/476/358 310/474/356 325/503/381 326/488/368
f 323/499/377 322/496/375 337/504/382 338/505/383
f 331/500/378 330/498/376 345/506/384 346/507/385
f 324/501/379 323/499/377 338/505/383 339/508/386
f 332/502/380 331/500/378 346/507/385 347/509/387
f 325/503/381 324/501/379 339/508/386 340/510/388
f 333/486/366 332/502/380 347/509/387 348/511/389
f 326/488/368 325/503/381 340/510/388 341/512/390
f 334/487/367 333/486/366 348/511/389 349/513/391
f 327/489/369 326/488/368 341/512/390 342/514/392
f 335/490/370 334/487/367 349/513/391 350/515/393
f 328/491/371 327/489/369 342/514/392 343/516/394
f 336/492/372 335/490/370 350/515/393 351/517/395
f 329/493/373 328/491/371 343/516/394 344/518/396
f 322/496/375 485/519/374 486/520/397 337/504/382
f 367/521/288 336/492/372 351/517/395
f 330/498/376 329/493/373 344/518/396 345/506/384
f 342/514/392 341/512/390 356/522/398 357/523/399
f 350/515/393 349/513/391 364/524/400 365/525/401
f 343/516/394 342/514/392 357/523/399 358/526/402
f 351/517/395 350/515/393 365/525/401 366/527/403
f 344/518/396 343/516/394 358/526/402 359/528/404
f 337/504/382 486/529/397 491/530/405 352/531/406
f 367/532/288 351/517/395 366/527/403
f 345/506/384 344/518/396 359/528/404 360/533/407
f 338/505/383 337/504/382 352/531/406 353/534/408
f 346/507/385 345/506/384 360/533/407 361/535/409
f 339/508/386 338/505/383 353/534/408 354/536/410
f 347/509/387 346/507/385 361/535/409 362/537/411
f 340/510/388 339/508/386 354/536/410 355/538/412
f 348/511/389 347/509/387 362/537/411 363/539/413
f 341/512/390 340/510/388 355/538/412 356/522/398
f 349/513/391 348/511/389 363/539/413 364/524/400
f 361/535/409 360/533/407 376/540/414 377/541/415
f 354/536/410 353/534/408 369/542/416 370/543/417
f 362/537/411 361/535/409 377/541/415 378/544/418
f 355/538/412 354/536/410 370/543/417 371/545/419
f 363/539/413 362/537/411 378/544/418 379/546/420
f 356/522/398 355/538/412 371/545/419 372/547/421
f 364/524/400 363/539/413 379/546/420 380/548/422
f 357/523/399 356/522/398 372/547/421 373/549/423
f 365/525/401 364/524/400 380/548/422 381/550/424
f 358/526/402 357/523/399 373/549/423 374/551/425
f 366/527/403 365/525/401 381/550/424 382/552/426
f 359/528/404 358/526/402 374/551/425 375/553/427
f 352/531/406 491/554/405 492/555/428 368/556/429
f 367/557/288 366/527/403 382/552/426
f 360/533/407 359/528/404 375/553/427 376/540/414
f 353/534/408 352/531/406 368/556/429 369/542/416
f 381/550/424 380/548/422 395/558/430 396/559/431
f 374/551/425 373/549/423 388/560/432 389/561/433
f 382/552/426 381/550/424 396/559/431 397/562/434
f 375/553/427 374/551/425 389/561/433 390/563/435
f 368/556/429 492/564/428 493/565/436 383/566/437
f 367/567/288 382/552/426 397/562/434
f 376/540/414 375/553/427 390/563/435 391/568/438
f 369/542/416 368/556/429 383/566/437 384/569/439
f 377/541/415 376/540/414 391/568/438 392/570/440
f 370/543/417 369/542/416 384/569/439 385/571/441
f 378/544/418 377/541/415 392/570/440 393/572/442
f 371/545/419 370/543/417 385/571/441 386/573/443
f 379/546/420 378/544/418 393/572/442 394/574/444
f 372/547/421 371/545/419 386/573/443 387/575/445
f 380/548/422 379/546/420 394/574/444 395/558/430
f 373/549/423 372/547/421 387/575/445 388/560/432
f 393/572/442 392/570/440 407/576/446 408/577/447
f 386/573/443 385/571/441 400/578/448 401/579/449
f 394/574/444 393/572/442 408/577/447 409/580/450
f 387/575/445 386/573/443 401/579/449 402/581/451
f 395/558/430 394/574/444 409/580/450 410/582/452
f 388/560/432 387/575/445 402/581/451 403/583/453
f 396/559/431 395/558/430 410/582/452 411/584/454
f 389/561/433 388/560/432 403/583/453 404/585/455
f 397/562/434 396/559/431 411/584/454 412/586/456
f 390/563/435 389/561/433 404/585/455 405/587/457
f 383/566/437 493/588/436 488/589/458 489/590/459 398/591/460
f 367/592/288 397/562/434 412/586/456
f 391/568/438 390/563/435 405/587/457 406/593/461
f 384/569/439 383/566/437 398/591/460 399/594/462
f 392/570/440 391/568/438 406/593/461 407/576/446
f 385/571/441 384/569/439 399/594/462 400/578/448
f 412/586/456 411/584/454 426/595/463 427/596/464
f 405/587/457 404/585/455 419/597/465 420/598/466
f 398/591/460 489/599/459 490/600/467 413/601/468
f 367/602/288 412/586/456 427/596/464
f 406/593/461 405/587/457 420/598/466 421/603/469
f 399/594/462 398/591/460 413/601/468 414/604/470
f 407/576/446 406/593/461 421/603/469 422/605/471
f 400/578/448 399/594/462 414/604/470 415/606/472
f 408/577/447 407/576/446 422/605/471 423/607/473
f 401/579/449 400/578/448 415/606/472 416/608/474
f 409/580/450 408/577/447 423/607/473 424/609/475
f 402/581/451 401/579/449 416/608/474 417/610/476
f 410/582/452 409/580/450 424/609/475 425/611/477
f 403/583/453 402/581/451 417/610/476 418/612/478
f 411/584/454 410/582/452 425/611/477 426/595/463
f 404/585/455 403/583/453 418/612/478 419/597/465
f 416/613/474 415/614/472 430/615/479 431/616/480
f 424/617/475 423/618/473 438/619/481 439/620/482
f 417/621/476 416/613/474 431/616/480 432/622/483
f 425/623/477 424/617/475 439/620/482 440/624/484
f 418/625/478 417/621/476 432/622/483 433/626/485
f 426/627/463 425/623/477 440/624/484 441/628/486
f 419/629/465 418/625/478 433/626/485 434/630/487
f 427/631/464 426/627/463 441/628/486 442/632/488
f 420/633/466 419/629/465 434/630/487 435/634/489
f 413/635/468 490/636/467 487/637/490 428/638/491
f 367/639/288 427/631/464 442/632/488
f 421/640/469 420/633/466 435/634/489 436/641/492
f 414/642/470 413/635/468 428/638/491 429/643/493
f 422/644/471 421/640/469 436/641/492 437/645/494
f 415/614/472 414/642/470 429/643/493 430/615/479
f 423/618/473 422/644/471 437/645/494 438/619/481
f 435/634/489 434/630/487 449/646/495 450/647/496
f 428/638/491 487/648/490 482/649/497 443/650/498
f 367/651/288 442/632/488 457/652/499
f 436/641/492 435/634/489 450/647/496 451/653/500
f 429/643/493 428/638/491 443/650/498 444/654/501
f 437/645/494 436/641/492 451/653/500 452/655/502
f 430/615/479 429/643/493 444/654/501 445/656/503
f 438/619/481 437/645/494 452/655/502 453/657/504
f 431/616/480 430/615/479 445/656/503 446/658/505
f 439/620/482 438/619/481 453/657/504 454/659/506
f 432/622/483 431/616/480 446/658/505 447/660/507
f 440/624/484 439/620/482 454/659/506 455/661/508
f 433/626/485 432/622/483 447/660/507 448/662/509
f 441/628/486 440/624/484 455/661/508 456/663/510
f 434/630/487 433/626/485 448/662/509 449/646/495
f 442/632/488 441/628/486 456/663/510 457/652/499
f 454/659/506 453/657/504 468/664/511 469/665/512
f 447/660/507 446/658/505 461/666/513 462/667/514
f 455/661/508 454/659/506 469/665/512 470/668/515
f 448/662/509 447/660/507 462/667/514 463/669/516
f 456/663/510 455/661/508 470/668/515 471/670/517
f 449/646/495 448/662/509 463/669/516 464/671/518
f 457/652/499 456/663/510 471/670/517 472/672/519
f 450/647/496 449/646/495 464/671/518 465/673/520
f 443/650/498 482/674/497 480/675/521 458/676/522
f 367/677/288 457/652/499 472/672/519
f 451/653/500 450/647/496 465/673/520 466/678/523
f 444/654/501 443/650/498 458/676/522 459/679/524
f 452/655/502 451/653/500 466/678/523 467/680/525
f 445/656/503 444/654/501 459/679/524 460/681/526
f 453/657/504 452/655/502 467/680/525 468/664/511
f 446/658/505 445/656/503 460/681/526 461/666/513
f 458/676/522 480/682/521 481/683/284 234/395/283
f 367/684/288 472/672/519 246/391/279
f 466/678/523 465/673/520 239/393/281 240/401/289
f 459/679/524 458/676/522 234/395/283 473/403/291
f 467/680/525 466/678/523 240/401/289 241/405/293
f 460/681/526 459/679/524 473/403/291 474/407/295
f 468/664/511 467/680/525 241/405/293 242/409/297
f 461/666/513 460/681/526 474/407/295 235/411/299
f 469/665/512 468/664/511 242/409/297 243/380/268
f 462/667/514 461/666/513 235/411/299 236/384/272
f 470/668/515 469/665/512 243/380/268 244/379/267
f 463/669/516 462/667/514 236/384/272 237/383/271
f 471/670/517 470/668/515 244/379/267 245/387/275
f 464/671/518 463/669/516 237/383/271 238/389/277
f 472/672/519 471/670/517 245/387/275 246/391/279
f 465/673/520 464/671/518 238/389/277 239/393/281
f 475/685/285 481/686/284 480/687/521 482/688/497 487/689/490 490/690/467 489/691/459 488/692/458 233/318/232 196/321/235
f 488/692/458 493/693/436 492/694/428 491/695/405 486/696/397 485/697/374 484/698/365 483/699/364 220/346/256 233/318/232
f 483/699/364 479/700/342 478/701/317 477/702/311 476/703/286 475/704/285 196/361/235 220/346/256
f 500/705/213 501/706/212 229/328/240 200/331/241
f 499/707/202 497/708/201 500/709/213 200/367/241 216/352/260
f 501/706/212 498/710/203 499/707/202 216/352/260 229/328/240
f 520/148/114 526/711/215 525/712/206 527/713/527 523/714/208 18/149/39 25/142/110 26/141/109
f 142/262/197 523/274/208 527/715/527 525/272/206 136/271/205 141/263/198
f 515/716/100 509/717/94 508/718/93 228/332/242
f 508/718/93 504/372/92 215/355/261 227/333/243 228/332/242
f 514/719/101 515/716/100 228/332/242 201/335/245
f 505/373/91 507/720/90 514/721/101 201/370/245
f 526/722/215 522/65/46 95/54/36 18/57/39 523/723/208 524/724/207 525/725/206
